<?xml version="1.0" encoding="UTF-8" standalone="no"?>
<!DOCTYPE svg PUBLIC "-//W3C//DTD SVG 20010904//EN"
              "http://www.w3.org/TR/2001/REC-SVG-20010904/DTD/svg10.dtd">

<svg xmlns="http://www.w3.org/2000/svg"
     width="1000.08mm" height="312.251mm"
     viewBox="0 0 11812 3688">
  <path id="Selection"
        fill="none" stroke="black" stroke-width="1"
        d="M 0.00,0.00
           C 0.00,0.00 11812.00,0.00 11812.00,0.00
             11812.00,0.00 11812.00,3688.00 11812.00,3688.00
             11812.00,3688.00 0.00,3688.00 0.00,3688.00
             0.00,3688.00 0.00,0.00 0.00,0.00 Z
           M 7447.00,258.28
           C 7447.00,258.28 7407.00,259.00 7407.00,259.00
             7407.00,259.00 7390.00,260.00 7390.00,260.00
             7390.00,260.00 7360.00,260.00 7360.00,260.00
             7360.00,260.00 7343.00,261.00 7343.00,261.00
             7343.00,261.00 7266.00,262.00 7266.00,262.00
             7266.00,262.00 7249.00,263.00 7249.00,263.00
             7249.00,263.00 7217.00,263.00 7217.00,263.00
             7217.00,263.00 7203.00,264.00 7203.00,264.00
             7203.00,264.00 7169.00,264.00 7169.00,264.00
             7169.00,264.00 7152.00,265.00 7152.00,265.00
             7152.00,265.00 7117.00,265.00 7117.00,265.00
             7117.00,265.00 7100.00,266.00 7100.00,266.00
             7100.00,266.00 7066.00,266.00 7066.00,266.00
             7066.00,266.00 7049.00,267.00 7049.00,267.00
             7049.00,267.00 7014.00,267.00 7014.00,267.00
             7014.00,267.00 6997.00,268.00 6997.00,268.00
             6997.00,268.00 6961.00,268.00 6961.00,268.00
             6961.00,268.00 6946.00,269.00 6946.00,269.00
             6946.00,269.00 6911.00,269.00 6911.00,269.00
             6911.00,269.00 6894.00,270.00 6894.00,270.00
             6894.00,270.00 6857.00,270.00 6857.00,270.00
             6857.00,270.00 6840.00,271.00 6840.00,271.00
             6840.00,271.00 6798.00,271.00 6798.00,271.00
             6798.00,271.00 6783.00,272.00 6783.00,272.00
             6783.00,272.00 6743.00,272.00 6743.00,272.00
             6743.00,272.00 6726.00,273.00 6726.00,273.00
             6726.00,273.00 6686.00,273.00 6686.00,273.00
             6686.00,273.00 6669.00,274.00 6669.00,274.00
             6669.00,274.00 6629.00,274.00 6629.00,274.00
             6629.00,274.00 6612.00,275.00 6612.00,275.00
             6612.00,275.00 6571.00,275.00 6571.00,275.00
             6571.00,275.00 6556.00,276.00 6556.00,276.00
             6556.00,276.00 6516.00,276.00 6516.00,276.00
             6516.00,276.00 6499.00,277.00 6499.00,277.00
             6499.00,277.00 6453.00,277.00 6453.00,277.00
             6453.00,277.00 6436.00,278.00 6436.00,278.00
             6436.00,278.00 6389.00,278.00 6389.00,278.00
             6389.00,278.00 6372.00,279.00 6372.00,279.00
             6372.00,279.00 6322.00,279.00 6322.00,279.00
             6322.00,279.00 6307.00,280.00 6307.00,280.00
             6307.00,280.00 6259.00,280.00 6259.00,280.00
             6259.00,280.00 6242.00,281.00 6242.00,281.00
             6242.00,281.00 6194.00,281.00 6194.00,281.00
             6194.00,281.00 6177.00,282.00 6177.00,282.00
             6177.00,282.00 6128.00,282.00 6128.00,282.00
             6128.00,282.00 6113.00,283.00 6113.00,283.00
             6113.00,283.00 6063.00,283.00 6063.00,283.00
             6063.00,283.00 6048.00,284.00 6048.00,284.00
             6048.00,284.00 5990.00,284.00 5990.00,284.00
             5990.00,284.00 5975.00,285.00 5975.00,285.00
             5975.00,285.00 5915.00,285.00 5915.00,285.00
             5915.00,285.00 5898.00,286.00 5898.00,286.00
             5898.00,286.00 5837.00,286.00 5837.00,286.00
             5837.00,286.00 5820.00,287.00 5820.00,287.00
             5820.00,287.00 5757.00,287.00 5757.00,287.00
             5757.00,287.00 5742.00,288.00 5742.00,288.00
             5742.00,288.00 5681.00,288.00 5681.00,288.00
             5681.00,288.00 5664.00,289.00 5664.00,289.00
             5664.00,289.00 5602.00,289.00 5602.00,289.00
             5602.00,289.00 5587.00,290.00 5587.00,290.00
             5587.00,290.00 5526.00,290.00 5526.00,290.00
             5526.00,290.00 5509.00,291.00 5509.00,291.00
             5509.00,291.00 5430.00,291.00 5430.00,291.00
             5430.00,291.00 5415.00,292.00 5415.00,292.00
             5415.00,292.00 5335.00,292.00 5335.00,292.00
             5335.00,292.00 5321.00,293.00 5321.00,293.00
             5321.00,293.00 5238.00,293.00 5238.00,293.00
             5238.00,293.00 5223.00,294.00 5223.00,294.00
             5223.00,294.00 5124.00,294.00 5124.00,294.00
             5124.00,294.00 5109.00,295.00 5109.00,295.00
             5109.00,295.00 5011.00,295.00 5011.00,295.00
             5011.00,295.00 4996.00,296.00 4996.00,296.00
             4996.00,296.00 4873.00,296.00 4873.00,296.00
             4873.00,296.00 4858.00,297.00 4858.00,297.00
             4858.00,297.00 4726.00,297.00 4726.00,297.00
             4726.00,297.00 4711.00,298.00 4711.00,298.00
             4711.00,298.00 4519.00,298.00 4519.00,298.00
             4519.00,298.00 4504.00,299.00 4504.00,299.00
             4504.00,299.00 4431.00,299.00 4431.00,299.00
             4421.13,299.00 4408.59,297.01 4401.34,305.10
             4394.80,312.41 4396.01,324.82 4396.00,334.00
             4396.00,334.00 4395.00,351.00 4395.00,351.00
             4395.00,351.00 4395.00,366.00 4395.00,366.00
             4395.00,366.00 4393.96,381.00 4393.96,381.00
             4393.96,381.00 4393.96,398.00 4393.96,398.00
             4393.96,398.00 4393.00,409.00 4393.00,409.00
             4393.00,409.00 4393.00,425.00 4393.00,425.00
             4393.00,425.00 4392.00,438.00 4392.00,438.00
             4392.00,438.00 4392.00,453.00 4392.00,453.00
             4392.00,453.00 4391.00,469.00 4391.00,469.00
             4391.00,469.00 4391.00,483.00 4391.00,483.00
             4391.00,483.00 4390.00,499.00 4390.00,499.00
             4390.00,499.00 4390.00,513.00 4390.00,513.00
             4390.00,513.00 4389.00,528.00 4389.00,528.00
             4389.00,528.00 4387.00,596.00 4387.00,596.00
             4387.00,596.00 4386.00,611.00 4386.00,611.00
             4386.00,611.00 4386.00,622.00 4386.00,622.00
             4386.00,622.00 4384.96,637.00 4384.96,637.00
             4384.96,637.00 4384.96,652.00 4384.96,652.00
             4384.96,652.00 4384.00,664.00 4384.00,664.00
             4384.00,664.00 4383.00,702.00 4383.00,702.00
             4383.00,702.00 4382.00,715.00 4382.00,715.00
             4382.00,715.00 4382.00,728.00 4382.00,728.00
             4382.00,728.00 4380.96,743.00 4380.96,743.00
             4380.96,743.00 4380.96,757.00 4380.96,757.00
             4380.96,757.00 4379.96,769.00 4379.96,769.00
             4379.96,769.00 4379.96,781.00 4379.96,781.00
             4379.96,781.00 4379.00,793.00 4379.00,793.00
             4379.00,793.00 4378.00,827.00 4378.00,827.00
             4378.00,827.00 4377.00,842.00 4377.00,842.00
             4377.00,842.00 4375.00,898.00 4375.00,898.00
             4375.00,898.00 4373.96,915.00 4373.96,915.00
             4373.96,915.00 4373.96,927.00 4373.96,927.00
             4373.96,927.00 4373.00,939.00 4373.00,939.00
             4373.00,939.00 4372.00,962.00 4372.00,962.00
             4372.00,962.00 4371.00,993.00 4371.00,993.00
             4371.00,993.00 4370.00,1007.00 4370.00,1007.00
             4370.00,1007.00 4369.00,1038.00 4369.00,1038.00
             4369.00,1038.00 4368.04,1048.00 4368.04,1048.00
             4368.04,1048.00 4368.04,1061.00 4368.04,1061.00
             4368.04,1061.00 4367.00,1076.00 4367.00,1076.00
             4367.00,1076.00 4366.00,1099.00 4366.00,1099.00
             4366.00,1099.00 4365.00,1121.00 4365.00,1121.00
             4365.00,1121.00 4364.00,1152.00 4364.00,1152.00
             4364.00,1152.00 4363.00,1167.00 4363.00,1167.00
             4363.00,1167.00 4361.00,1218.00 4361.00,1218.00
             4361.00,1218.00 4360.00,1235.00 4360.00,1235.00
             4360.00,1235.00 4358.00,1286.00 4358.00,1286.00
             4358.00,1286.00 4357.00,1309.00 4357.00,1309.00
             4357.00,1309.00 4356.00,1326.00 4356.00,1326.00
             4356.00,1326.00 4355.00,1348.00 4355.00,1348.00
             4355.00,1348.00 4354.00,1371.00 4354.00,1371.00
             4354.00,1371.00 4353.00,1403.00 4353.00,1403.00
             4353.00,1403.00 4351.96,1420.00 4351.96,1420.00
             4351.96,1420.00 4351.96,1433.00 4351.96,1433.00
             4351.96,1433.00 4350.96,1445.00 4350.96,1445.00
             4350.96,1445.00 4350.96,1459.00 4350.96,1459.00
             4350.96,1459.00 4349.96,1471.00 4349.96,1471.00
             4349.96,1471.00 4349.96,1484.00 4349.96,1484.00
             4349.96,1484.00 4349.00,1496.00 4349.00,1496.00
             4349.00,1496.00 4348.00,1536.00 4348.00,1536.00
             4348.00,1536.00 4347.00,1553.00 4347.00,1553.00
             4347.00,1553.00 4347.00,1567.00 4347.00,1567.00
             4347.00,1567.00 4346.00,1583.00 4346.00,1583.00
             4346.00,1583.00 4346.00,1597.00 4346.00,1597.00
             4346.00,1597.00 4345.00,1613.00 4345.00,1613.00
             4345.00,1613.00 4345.00,1627.00 4345.00,1627.00
             4345.00,1627.00 4344.00,1643.00 4344.00,1643.00
             4344.00,1643.00 4343.00,1706.00 4343.00,1706.00
             4343.00,1706.00 4342.00,1722.00 4342.00,1722.00
             4342.00,1722.00 4342.00,1745.00 4342.00,1745.00
             4342.00,1745.00 4341.00,1762.00 4341.00,1762.00
             4341.00,1762.00 4341.00,1798.00 4341.00,1798.00
             4341.00,1798.00 4340.00,1813.00 4340.00,1813.00
             4340.00,1813.00 4340.00,1857.00 4340.00,1857.00
             4340.00,1857.00 4339.00,1874.00 4339.00,1874.00
             4339.00,1874.00 4339.00,1928.00 4339.00,1928.00
             4339.00,1928.00 4338.00,1943.00 4338.00,1943.00
             4338.00,1943.00 4338.00,2053.00 4338.00,2053.00
             4338.00,2053.00 4337.00,2068.00 4337.00,2068.00
             4337.00,2068.00 4337.00,2217.00 4337.00,2217.00
             4337.00,2217.00 4337.00,2299.00 4337.00,2299.00
             4337.00,2299.00 4338.00,2314.00 4338.00,2314.00
             4338.00,2314.00 4338.00,2467.00 4338.00,2467.00
             4338.00,2467.00 4339.00,2482.00 4339.00,2482.00
             4339.00,2482.00 4339.00,2557.00 4339.00,2557.00
             4339.00,2557.00 4340.00,2572.00 4340.00,2572.00
             4340.00,2572.00 4340.00,2646.00 4340.00,2646.00
             4340.00,2646.00 4341.00,2661.00 4341.00,2661.00
             4341.00,2661.00 4341.00,2727.00 4341.00,2727.00
             4341.00,2727.00 4342.00,2742.00 4342.00,2742.00
             4342.00,2742.00 4342.00,2791.00 4342.00,2791.00
             4342.00,2791.00 4343.00,2808.00 4343.00,2808.00
             4343.00,2808.00 4343.00,2857.00 4343.00,2857.00
             4343.00,2857.00 4344.00,2874.00 4344.00,2874.00
             4344.00,2874.00 4344.00,2925.00 4344.00,2925.00
             4344.00,2925.00 4345.00,2940.00 4345.00,2940.00
             4345.00,2940.00 4345.00,2986.00 4345.00,2986.00
             4345.00,2986.00 4346.00,3003.00 4346.00,3003.00
             4346.00,3003.00 4346.00,3040.00 4346.00,3040.00
             4346.00,3040.00 4347.00,3057.00 4347.00,3057.00
             4347.00,3057.00 4347.00,3095.00 4347.00,3095.00
             4347.00,3095.00 4348.00,3112.00 4348.00,3112.00
             4348.00,3112.00 4348.00,3151.00 4348.00,3151.00
             4348.00,3151.00 4349.00,3166.00 4349.00,3166.00
             4349.00,3166.00 4349.00,3203.00 4349.00,3203.00
             4349.00,3203.00 4350.00,3220.00 4350.00,3220.00
             4350.00,3220.00 4350.00,3257.00 4350.00,3257.00
             4350.00,3257.00 4351.00,3274.00 4351.00,3274.00
             4351.00,3274.00 4351.00,3290.00 4351.00,3290.00
             4351.00,3301.87 4351.23,3312.76 4365.00,3316.70
             4370.74,3318.34 4375.20,3317.94 4381.00,3318.00
             4381.00,3318.00 4400.00,3319.00 4400.00,3319.00
             4400.00,3319.00 4419.00,3320.00 4419.00,3320.00
             4419.00,3320.00 4435.00,3321.00 4435.00,3321.00
             4435.00,3321.00 4477.00,3323.00 4477.00,3323.00
             4477.00,3323.00 4492.00,3324.00 4492.00,3324.00
             4492.00,3324.00 4514.00,3325.00 4514.00,3325.00
             4514.00,3325.00 4534.00,3326.00 4534.00,3326.00
             4534.00,3326.00 4553.00,3327.00 4553.00,3327.00
             4553.00,3327.00 4558.00,3327.00 4558.00,3327.00
             4558.00,3327.00 4572.00,3328.00 4572.00,3328.00
             4572.00,3328.00 4577.00,3328.00 4577.00,3328.00
             4577.00,3328.00 4588.00,3328.96 4588.00,3328.96
             4588.00,3328.96 4597.00,3328.96 4597.00,3328.96
             4597.00,3328.96 4615.00,3330.00 4615.00,3330.00
             4615.00,3330.00 4630.00,3331.00 4630.00,3331.00
             4630.00,3331.00 4656.00,3332.00 4656.00,3332.00
             4656.00,3332.00 4674.00,3333.00 4674.00,3333.00
             4674.00,3333.00 4691.00,3334.00 4691.00,3334.00
             4691.00,3334.00 4709.00,3335.00 4709.00,3335.00
             4709.00,3335.00 4735.00,3336.00 4735.00,3336.00
             4735.00,3336.00 4745.00,3336.96 4745.00,3336.96
             4745.00,3336.96 4755.00,3336.96 4755.00,3336.96
             4755.00,3336.96 4773.00,3338.00 4773.00,3338.00
             4773.00,3338.00 4789.00,3339.00 4789.00,3339.00
             4789.00,3339.00 4808.00,3340.00 4808.00,3340.00
             4808.00,3340.00 4853.00,3342.00 4853.00,3342.00
             4853.00,3342.00 4866.00,3343.00 4866.00,3343.00
             4866.00,3343.00 4894.00,3344.00 4894.00,3344.00
             4894.00,3344.00 4912.00,3345.00 4912.00,3345.00
             4912.00,3345.00 4929.00,3346.00 4929.00,3346.00
             4929.00,3346.00 4947.00,3347.00 4947.00,3347.00
             4947.00,3347.00 4975.00,3348.00 4975.00,3348.00
             4975.00,3348.00 4988.00,3349.00 4988.00,3349.00
             4988.00,3349.00 5014.00,3350.00 5014.00,3350.00
             5014.00,3350.00 5030.00,3351.00 5030.00,3351.00
             5030.00,3351.00 5048.00,3352.00 5048.00,3352.00
             5048.00,3352.00 5076.00,3353.00 5076.00,3353.00
             5076.00,3353.00 5090.00,3354.00 5090.00,3354.00
             5090.00,3354.00 5115.00,3355.00 5115.00,3355.00
             5115.00,3355.00 5131.00,3356.00 5131.00,3356.00
             5131.00,3356.00 5150.00,3357.00 5150.00,3357.00
             5150.00,3357.00 5197.00,3359.00 5197.00,3359.00
             5197.00,3359.00 5210.00,3360.00 5210.00,3360.00
             5210.00,3360.00 5237.00,3361.00 5237.00,3361.00
             5237.00,3361.00 5255.00,3362.00 5255.00,3362.00
             5255.00,3362.00 5272.00,3363.00 5272.00,3363.00
             5272.00,3363.00 5291.00,3364.00 5291.00,3364.00
             5291.00,3364.00 5319.00,3365.00 5319.00,3365.00
             5319.00,3365.00 5333.00,3366.00 5333.00,3366.00
             5333.00,3366.00 5361.00,3367.00 5361.00,3367.00
             5361.00,3367.00 5377.00,3368.00 5377.00,3368.00
             5377.00,3368.00 5399.00,3369.00 5399.00,3369.00
             5399.00,3369.00 5420.00,3370.00 5420.00,3370.00
             5420.00,3370.00 5449.00,3371.00 5449.00,3371.00
             5449.00,3371.00 5463.00,3372.00 5463.00,3372.00
             5463.00,3372.00 5493.00,3373.00 5493.00,3373.00
             5493.00,3373.00 5506.00,3374.00 5506.00,3374.00
             5506.00,3374.00 5535.00,3375.00 5535.00,3375.00
             5535.00,3375.00 5552.00,3376.00 5552.00,3376.00
             5552.00,3376.00 5606.00,3378.00 5606.00,3378.00
             5606.00,3378.00 5621.00,3379.00 5621.00,3379.00
             5621.00,3379.00 5654.00,3380.00 5654.00,3380.00
             5654.00,3380.00 5677.00,3381.00 5677.00,3381.00
             5677.00,3381.00 5689.00,3381.96 5689.00,3381.96
             5689.00,3381.96 5701.00,3381.96 5701.00,3381.96
             5701.00,3381.96 5716.00,3383.04 5716.00,3383.04
             5716.00,3383.04 5730.00,3383.04 5730.00,3383.04
             5730.00,3383.04 5742.00,3384.04 5742.00,3384.04
             5742.00,3384.04 5757.00,3384.04 5757.00,3384.04
             5757.00,3384.04 5769.00,3385.04 5769.00,3385.04
             5769.00,3385.04 5784.00,3385.04 5784.00,3385.04
             5784.00,3385.04 5796.00,3386.04 5796.00,3386.04
             5796.00,3386.04 5811.00,3386.04 5811.00,3386.04
             5811.00,3386.04 5823.00,3387.00 5823.00,3387.00
             5823.00,3387.00 5861.00,3388.00 5861.00,3388.00
             5861.00,3388.00 5876.00,3389.00 5876.00,3389.00
             5876.00,3389.00 5913.00,3390.00 5913.00,3390.00
             5913.00,3390.00 5930.00,3391.00 5930.00,3391.00
             5930.00,3391.00 5945.00,3391.00 5945.00,3391.00
             5945.00,3391.00 5961.00,3392.00 5961.00,3392.00
             5961.00,3392.00 5978.00,3392.00 5978.00,3392.00
             5978.00,3392.00 5994.00,3393.00 5994.00,3393.00
             5994.00,3393.00 6011.00,3393.00 6011.00,3393.00
             6011.00,3393.00 6024.00,3394.00 6024.00,3394.00
             6024.00,3394.00 6042.00,3394.00 6042.00,3394.00
             6042.00,3394.00 6059.00,3395.00 6059.00,3395.00
             6059.00,3395.00 6107.00,3396.00 6107.00,3396.00
             6107.00,3396.00 6124.00,3397.00 6124.00,3397.00
             6124.00,3397.00 6239.00,3399.00 6239.00,3399.00
             6239.00,3399.00 6256.00,3400.00 6256.00,3400.00
             6256.00,3400.00 6284.00,3400.00 6284.00,3400.00
             6284.00,3400.00 6301.00,3401.00 6301.00,3401.00
             6301.00,3401.00 6356.00,3401.00 6356.00,3401.00
             6356.00,3401.00 6373.00,3402.00 6373.00,3402.00
             6373.00,3402.00 6436.00,3402.00 6436.00,3402.00
             6436.00,3402.00 6451.00,3403.00 6451.00,3403.00
             6451.00,3403.00 6613.00,3403.00 6613.00,3403.00
             6613.00,3403.00 6703.00,3403.00 6703.00,3403.00
             6703.00,3403.00 6718.00,3402.00 6718.00,3402.00
             6718.00,3402.00 6770.00,3402.00 6770.00,3402.00
             6770.00,3402.00 6787.00,3401.00 6787.00,3401.00
             6787.00,3401.00 6820.00,3401.00 6820.00,3401.00
             6820.00,3401.00 6836.00,3400.00 6836.00,3400.00
             6836.00,3400.00 6861.00,3400.00 6861.00,3400.00
             6861.00,3400.00 6876.00,3399.00 6876.00,3399.00
             6876.00,3399.00 6896.00,3399.00 6896.00,3399.00
             6896.00,3399.00 6912.00,3398.00 6912.00,3398.00
             6912.00,3398.00 6927.00,3398.00 6927.00,3398.00
             6927.00,3398.00 6943.00,3397.00 6943.00,3397.00
             6943.00,3397.00 6981.00,3396.00 6981.00,3396.00
             6981.00,3396.00 6996.00,3395.00 6996.00,3395.00
             6996.00,3395.00 7026.00,3394.00 7026.00,3394.00
             7026.00,3394.00 7047.00,3393.00 7047.00,3393.00
             7047.00,3393.00 7062.00,3392.00 7062.00,3392.00
             7062.00,3392.00 7086.00,3391.00 7086.00,3391.00
             7086.00,3391.00 7104.00,3390.00 7104.00,3390.00
             7104.00,3390.00 7116.00,3389.00 7116.00,3389.00
             7116.00,3389.00 7125.00,3389.00 7125.00,3389.00
             7125.00,3389.00 7148.00,3387.09 7148.00,3387.09
             7148.00,3387.09 7188.00,3384.91 7188.00,3384.91
             7188.00,3384.91 7320.00,3374.17 7320.00,3374.17
             7320.00,3374.17 7384.00,3368.08 7384.00,3368.08
             7392.93,3367.37 7406.18,3367.42 7412.79,3360.79
             7419.70,3353.85 7418.32,3341.95 7419.17,3333.00
             7419.17,3333.00 7422.91,3287.00 7422.91,3287.00
             7422.91,3287.00 7424.17,3266.00 7424.17,3266.00
             7424.17,3266.00 7428.09,3212.00 7428.09,3212.00
             7428.09,3212.00 7431.91,3163.00 7431.91,3163.00
             7431.91,3163.00 7436.09,3095.00 7436.09,3095.00
             7436.09,3095.00 7441.00,3029.00 7441.00,3029.00
             7441.00,3029.00 7441.00,3020.00 7441.00,3020.00
             7441.00,3020.00 7443.00,2990.00 7443.00,2990.00
             7443.00,2990.00 7443.91,2980.00 7443.91,2980.00
             7443.91,2980.00 7445.09,2955.00 7445.09,2955.00
             7445.09,2955.00 7447.00,2925.00 7447.00,2925.00
             7447.00,2925.00 7447.91,2915.00 7447.91,2915.00
             7447.91,2915.00 7449.09,2890.00 7449.09,2890.00
             7449.09,2890.00 7451.00,2861.00 7451.00,2861.00
             7451.00,2861.00 7452.00,2845.00 7452.00,2845.00
             7452.00,2845.00 7453.00,2822.00 7453.00,2822.00
             7453.00,2822.00 7453.96,2812.00 7453.96,2812.00
             7453.96,2812.00 7453.96,2804.00 7453.96,2804.00
             7453.96,2804.00 7455.00,2786.00 7455.00,2786.00
             7455.00,2786.00 7455.96,2776.00 7455.96,2776.00
             7455.96,2776.00 7455.96,2768.00 7455.96,2768.00
             7455.96,2768.00 7457.00,2750.00 7457.00,2750.00
             7457.00,2750.00 7458.00,2736.00 7458.00,2736.00
             7458.00,2736.00 7460.00,2694.00 7460.00,2694.00
             7460.00,2694.00 7461.00,2680.00 7461.00,2680.00
             7461.00,2680.00 7462.00,2653.00 7462.00,2653.00
             7462.00,2653.00 7463.00,2640.00 7463.00,2640.00
             7463.00,2640.00 7464.00,2613.00 7464.00,2613.00
             7464.00,2613.00 7465.00,2598.00 7465.00,2598.00
             7465.00,2598.00 7466.00,2580.00 7466.00,2580.00
             7466.00,2580.00 7467.00,2552.00 7467.00,2552.00
             7467.00,2552.00 7468.00,2535.00 7468.00,2535.00
             7468.00,2535.00 7469.00,2512.00 7469.00,2512.00
             7469.00,2512.00 7470.00,2490.00 7470.00,2490.00
             7470.00,2490.00 7471.00,2468.00 7471.00,2468.00
             7471.00,2468.00 7473.00,2415.00 7473.00,2415.00
             7473.00,2415.00 7474.00,2398.00 7474.00,2398.00
             7474.00,2398.00 7476.00,2339.00 7476.00,2339.00
             7476.00,2339.00 7476.96,2327.00 7476.96,2327.00
             7476.96,2327.00 7476.96,2314.00 7476.96,2314.00
             7476.96,2314.00 7478.00,2299.00 7478.00,2299.00
             7478.00,2299.00 7478.00,2286.00 7478.00,2286.00
             7478.00,2286.00 7479.00,2271.00 7479.00,2271.00
             7479.00,2271.00 7479.00,2257.00 7479.00,2257.00
             7479.00,2257.00 7480.00,2242.00 7480.00,2242.00
             7480.00,2242.00 7480.00,2228.00 7480.00,2228.00
             7480.00,2228.00 7481.00,2213.00 7481.00,2213.00
             7481.00,2213.00 7481.00,2199.00 7481.00,2199.00
             7481.00,2199.00 7482.00,2184.00 7482.00,2184.00
             7482.00,2184.00 7482.00,2170.00 7482.00,2170.00
             7482.00,2170.00 7483.00,2155.00 7483.00,2155.00
             7483.00,2155.00 7483.00,2140.00 7483.00,2140.00
             7483.00,2140.00 7484.00,2124.00 7484.00,2124.00
             7484.00,2124.00 7486.00,2039.00 7486.00,2039.00
             7486.00,2039.00 7487.00,2022.00 7487.00,2022.00
             7487.00,2022.00 7487.00,2003.00 7487.00,2003.00
             7487.00,2003.00 7488.00,1987.00 7488.00,1987.00
             7488.00,1987.00 7488.00,1963.00 7488.00,1963.00
             7488.00,1963.00 7489.00,1946.00 7489.00,1946.00
             7489.00,1946.00 7489.00,1923.00 7489.00,1923.00
             7489.00,1923.00 7490.00,1906.00 7490.00,1906.00
             7490.00,1906.00 7490.00,1882.00 7490.00,1882.00
             7490.00,1882.00 7491.00,1865.00 7491.00,1865.00
             7491.00,1865.00 7492.00,1782.00 7492.00,1782.00
             7492.00,1782.00 7493.00,1765.00 7493.00,1765.00
             7493.00,1765.00 7493.00,1726.00 7493.00,1726.00
             7493.00,1726.00 7494.00,1710.00 7494.00,1710.00
             7494.00,1710.00 7494.00,1662.00 7494.00,1662.00
             7494.00,1662.00 7495.00,1645.00 7495.00,1645.00
             7495.00,1645.00 7495.00,1586.00 7495.00,1586.00
             7495.00,1586.00 7496.00,1569.00 7496.00,1569.00
             7496.00,1569.00 7496.00,1487.00 7496.00,1487.00
             7496.00,1487.00 7497.00,1472.00 7497.00,1472.00
             7497.00,1472.00 7497.00,1203.00 7497.00,1203.00
             7497.00,1203.00 7497.00,1054.00 7497.00,1054.00
             7497.00,1054.00 7496.00,1039.00 7496.00,1039.00
             7496.00,1039.00 7496.00,944.00 7496.00,944.00
             7496.00,944.00 7495.00,929.00 7495.00,929.00
             7495.00,929.00 7495.00,877.00 7495.00,877.00
             7495.00,877.00 7494.00,860.00 7494.00,860.00
             7494.00,860.00 7494.00,808.00 7494.00,808.00
             7494.00,808.00 7493.00,791.00 7493.00,791.00
             7493.00,791.00 7493.00,759.00 7493.00,759.00
             7493.00,759.00 7492.00,742.00 7492.00,742.00
             7492.00,742.00 7492.00,713.00 7492.00,713.00
             7492.00,713.00 7491.00,696.00 7491.00,696.00
             7491.00,696.00 7491.00,666.00 7491.00,666.00
             7491.00,666.00 7490.00,649.00 7490.00,649.00
             7490.00,649.00 7489.00,590.00 7489.00,590.00
             7489.00,590.00 7488.00,574.00 7488.00,574.00
             7488.00,574.00 7488.00,555.00 7488.00,555.00
             7488.00,555.00 7487.00,539.00 7487.00,539.00
             7487.00,539.00 7487.00,519.00 7487.00,519.00
             7487.00,519.00 7486.00,504.00 7486.00,504.00
             7486.00,504.00 7485.00,462.00 7485.00,462.00
             7485.00,462.00 7484.00,446.00 7484.00,446.00
             7484.00,446.00 7484.00,432.00 7484.00,432.00
             7484.00,432.00 7482.96,417.00 7482.96,417.00
             7482.96,417.00 7482.96,402.00 7482.96,402.00
             7482.96,402.00 7482.00,390.00 7482.00,390.00
             7482.00,390.00 7480.00,333.00 7480.00,333.00
             7480.00,333.00 7479.00,320.00 7479.00,320.00
             7479.00,320.00 7478.00,290.00 7478.00,290.00
             7477.93,284.71 7476.99,272.41 7474.59,268.00
             7468.94,257.67 7457.38,257.32 7447.00,258.28 Z
           M 3412.00,326.96
           C 3412.00,326.96 3399.00,326.96 3399.00,326.96
             3399.00,326.96 3387.00,326.00 3387.00,326.00
             3387.00,326.00 3373.00,326.00 3373.00,326.00
             3373.00,326.00 3358.00,325.00 3358.00,325.00
             3358.00,325.00 3314.00,324.00 3314.00,324.00
             3314.00,324.00 3299.00,323.00 3299.00,323.00
             3299.00,323.00 3255.00,322.00 3255.00,322.00
             3255.00,322.00 3242.00,321.00 3242.00,321.00
             3242.00,321.00 3226.00,321.00 3226.00,321.00
             3226.00,321.00 3210.00,320.00 3210.00,320.00
             3210.00,320.00 3196.00,320.00 3196.00,320.00
             3196.00,320.00 3181.00,318.96 3181.00,318.96
             3181.00,318.96 3165.00,318.96 3165.00,318.96
             3165.00,318.96 3153.00,318.00 3153.00,318.00
             3153.00,318.00 3115.00,317.00 3115.00,317.00
             3115.00,317.00 3105.00,316.04 3105.00,316.04
             3105.00,316.04 3090.00,316.04 3090.00,316.04
             3090.00,316.04 3075.00,315.00 3075.00,315.00
             3075.00,315.00 3038.00,314.00 3038.00,314.00
             3038.00,314.00 3021.00,313.00 3021.00,313.00
             3021.00,313.00 2985.00,312.00 2985.00,312.00
             2985.00,312.00 2968.00,310.96 2968.00,310.96
             2968.00,310.96 2955.00,310.96 2955.00,310.96
             2955.00,310.96 2943.00,309.96 2943.00,309.96
             2943.00,309.96 2931.00,309.96 2931.00,309.96
             2931.00,309.96 2919.00,309.00 2919.00,309.00
             2919.00,309.00 2885.00,308.00 2885.00,308.00
             2885.00,308.00 2871.00,307.00 2871.00,307.00
             2871.00,307.00 2837.00,306.00 2837.00,306.00
             2837.00,306.00 2823.00,305.00 2823.00,305.00
             2823.00,305.00 2789.00,304.00 2789.00,304.00
             2789.00,304.00 2774.00,303.00 2774.00,303.00
             2774.00,303.00 2751.00,302.00 2751.00,302.00
             2751.00,302.00 2729.00,301.00 2729.00,301.00
             2729.00,301.00 2698.00,300.00 2698.00,300.00
             2698.00,300.00 2685.00,299.00 2685.00,299.00
             2685.00,299.00 2654.00,298.00 2654.00,298.00
             2654.00,298.00 2637.00,297.00 2637.00,297.00
             2637.00,297.00 2615.00,296.00 2615.00,296.00
             2615.00,296.00 2592.00,295.00 2592.00,295.00
             2592.00,295.00 2562.00,294.00 2562.00,294.00
             2562.00,294.00 2548.00,293.00 2548.00,293.00
             2548.00,293.00 2516.00,292.00 2516.00,292.00
             2516.00,292.00 2506.00,291.04 2506.00,291.04
             2506.00,291.04 2494.00,291.04 2494.00,291.04
             2494.00,291.04 2479.00,290.00 2479.00,290.00
             2479.00,290.00 2456.00,289.00 2456.00,289.00
             2456.00,289.00 2433.00,288.00 2433.00,288.00
             2433.00,288.00 2403.00,287.00 2403.00,287.00
             2403.00,287.00 2389.00,286.00 2389.00,286.00
             2389.00,286.00 2357.00,285.00 2357.00,285.00
             2357.00,285.00 2342.00,283.96 2342.00,283.96
             2342.00,283.96 2329.00,283.96 2329.00,283.96
             2329.00,283.96 2317.00,282.96 2317.00,282.96
             2317.00,282.96 2304.00,282.96 2304.00,282.96
             2304.00,282.96 2292.00,282.00 2292.00,282.00
             2292.00,282.00 2256.00,281.00 2256.00,281.00
             2256.00,281.00 2243.00,279.96 2243.00,279.96
             2243.00,279.96 2228.00,279.96 2228.00,279.96
             2228.00,279.96 2216.00,279.00 2216.00,279.00
             2216.00,279.00 2202.00,279.00 2202.00,279.00
             2202.00,279.00 2187.00,278.00 2187.00,278.00
             2187.00,278.00 2171.00,278.00 2171.00,278.00
             2171.00,278.00 2156.00,277.00 2156.00,277.00
             2156.00,277.00 2112.00,276.00 2112.00,276.00
             2112.00,276.00 2095.00,275.00 2095.00,275.00
             2095.00,275.00 2075.00,275.00 2075.00,275.00
             2075.00,275.00 2059.00,274.00 2059.00,274.00
             2059.00,274.00 1997.00,273.00 1997.00,273.00
             1997.00,273.00 1980.00,272.00 1980.00,272.00
             1980.00,272.00 1953.00,272.00 1953.00,272.00
             1953.00,272.00 1936.00,271.00 1936.00,271.00
             1936.00,271.00 1893.00,271.00 1893.00,271.00
             1893.00,271.00 1876.00,270.00 1876.00,270.00
             1876.00,270.00 1830.00,270.00 1830.00,270.00
             1830.00,270.00 1815.00,269.00 1815.00,269.00
             1815.00,269.00 1719.00,269.00 1719.00,269.00
             1719.00,269.00 1704.00,268.00 1704.00,268.00
             1704.00,268.00 1489.00,268.00 1489.00,268.00
             1489.00,268.00 1370.00,268.00 1370.00,268.00
             1370.00,268.00 1355.00,269.00 1355.00,269.00
             1355.00,269.00 1230.00,269.00 1230.00,269.00
             1230.00,269.00 1215.00,270.00 1215.00,270.00
             1215.00,270.00 1140.00,270.00 1140.00,270.00
             1140.00,270.00 1125.00,271.00 1125.00,271.00
             1125.00,271.00 1051.00,271.00 1051.00,271.00
             1051.00,271.00 1036.00,272.00 1036.00,272.00
             1036.00,272.00 980.00,272.00 980.00,272.00
             980.00,272.00 963.00,273.00 963.00,273.00
             963.00,273.00 914.00,273.00 914.00,273.00
             914.00,273.00 897.00,274.00 897.00,274.00
             897.00,274.00 847.00,274.00 847.00,274.00
             847.00,274.00 832.00,275.00 832.00,275.00
             832.00,275.00 783.00,275.00 783.00,275.00
             783.00,275.00 766.00,276.00 766.00,276.00
             766.00,276.00 724.00,276.00 724.00,276.00
             724.00,276.00 707.00,277.00 707.00,277.00
             707.00,277.00 669.00,277.00 669.00,277.00
             669.00,277.00 652.00,278.00 652.00,278.00
             652.00,278.00 615.00,278.00 615.00,278.00
             615.00,278.00 598.00,279.00 598.00,279.00
             598.00,279.00 561.00,279.00 561.00,279.00
             561.00,279.00 544.00,280.00 544.00,280.00
             544.00,280.00 506.00,280.00 506.00,280.00
             506.00,280.00 489.00,281.00 489.00,281.00
             489.00,281.00 443.00,281.58 443.00,281.58
             439.77,282.00 430.78,281.38 429.02,283.60
             427.66,285.31 428.01,291.48 427.72,294.00
             427.72,294.00 427.00,309.00 427.00,309.00
             427.00,309.00 426.00,324.00 426.00,324.00
             426.00,324.00 426.00,328.00 426.00,328.00
             426.00,328.00 425.04,338.00 425.04,338.00
             425.04,338.00 425.04,348.00 425.04,348.00
             425.04,348.00 424.00,363.00 424.00,363.00
             424.00,363.00 423.00,381.00 423.00,381.00
             423.00,381.00 422.00,407.00 422.00,407.00
             422.00,407.00 421.00,420.00 421.00,420.00
             421.00,420.00 420.00,447.00 420.00,447.00
             420.00,447.00 419.04,457.00 419.04,457.00
             419.04,457.00 419.04,466.00 419.04,466.00
             419.04,466.00 418.00,484.00 418.00,484.00
             418.00,484.00 417.00,501.00 417.00,501.00
             417.00,501.00 416.00,519.00 416.00,519.00
             416.00,519.00 415.00,545.00 415.00,545.00
             415.00,545.00 414.04,555.00 414.04,555.00
             414.04,555.00 414.04,565.00 414.04,565.00
             414.04,565.00 413.00,580.00 413.00,580.00
             413.00,580.00 413.00,584.00 413.00,584.00
             413.00,584.00 412.00,599.00 412.00,599.00
             412.00,599.00 412.00,604.00 412.00,604.00
             412.00,604.00 411.00,617.00 411.00,617.00
             411.00,617.00 409.00,663.00 409.00,663.00
             409.00,663.00 408.00,676.00 408.00,676.00
             408.00,676.00 407.00,703.00 407.00,703.00
             407.00,703.00 406.00,716.00 406.00,716.00
             406.00,716.00 405.00,742.00 405.00,742.00
             405.00,742.00 404.00,760.00 404.00,760.00
             404.00,760.00 403.00,777.00 403.00,777.00
             403.00,777.00 402.00,795.00 402.00,795.00
             402.00,795.00 401.00,822.00 401.00,822.00
             401.00,822.00 400.00,835.00 400.00,835.00
             400.00,835.00 399.00,861.00 399.00,861.00
             399.00,861.00 398.00,877.00 398.00,877.00
             398.00,877.00 396.00,923.00 396.00,923.00
             396.00,923.00 395.00,938.00 395.00,938.00
             395.00,938.00 393.00,982.00 393.00,982.00
             393.00,982.00 392.00,999.00 392.00,999.00
             392.00,999.00 391.00,1019.00 391.00,1019.00
             391.00,1019.00 390.00,1037.00 390.00,1037.00
             390.00,1037.00 389.00,1064.00 389.00,1064.00
             389.00,1064.00 388.00,1077.00 388.00,1077.00
             388.00,1077.00 387.00,1105.00 387.00,1105.00
             387.00,1105.00 386.00,1123.00 386.00,1123.00
             386.00,1123.00 385.00,1140.00 385.00,1140.00
             385.00,1140.00 384.00,1158.00 384.00,1158.00
             384.00,1158.00 383.00,1186.00 383.00,1186.00
             383.00,1186.00 382.00,1199.00 382.00,1199.00
             382.00,1199.00 381.00,1227.00 381.00,1227.00
             381.00,1227.00 380.00,1242.00 380.00,1242.00
             380.00,1242.00 379.00,1263.00 379.00,1263.00
             379.00,1263.00 378.00,1284.00 378.00,1284.00
             378.00,1284.00 377.00,1313.00 377.00,1313.00
             377.00,1313.00 376.00,1333.00 376.00,1333.00
             376.00,1333.00 375.00,1350.00 375.00,1350.00
             375.00,1350.00 373.00,1398.00 373.00,1398.00
             373.00,1398.00 372.00,1420.00 372.00,1420.00
             372.00,1420.00 371.00,1437.00 371.00,1437.00
             371.00,1437.00 370.00,1459.00 370.00,1459.00
             370.00,1459.00 369.00,1492.00 369.00,1492.00
             369.00,1492.00 368.00,1506.00 368.00,1506.00
             368.00,1506.00 367.00,1539.00 367.00,1539.00
             367.00,1539.00 365.96,1554.00 365.96,1554.00
             365.96,1554.00 365.96,1566.00 365.96,1566.00
             365.96,1566.00 365.00,1578.00 365.00,1578.00
             365.00,1578.00 364.00,1601.00 364.00,1601.00
             364.00,1601.00 363.00,1634.00 363.00,1634.00
             363.00,1634.00 362.00,1649.00 362.00,1649.00
             362.00,1649.00 360.00,1712.00 360.00,1712.00
             360.00,1712.00 358.96,1728.00 358.96,1728.00
             358.96,1728.00 358.96,1743.00 358.96,1743.00
             358.96,1743.00 357.96,1755.00 357.96,1755.00
             357.96,1755.00 357.96,1770.00 357.96,1770.00
             357.96,1770.00 356.96,1782.00 356.96,1782.00
             356.96,1782.00 356.96,1797.00 356.96,1797.00
             356.96,1797.00 355.96,1809.00 355.96,1809.00
             355.96,1809.00 355.96,1824.00 355.96,1824.00
             355.96,1824.00 355.00,1836.00 355.00,1836.00
             355.00,1836.00 355.00,1850.00 355.00,1850.00
             355.00,1850.00 354.00,1866.00 354.00,1866.00
             354.00,1866.00 354.00,1882.00 354.00,1882.00
             354.00,1882.00 353.00,1898.00 353.00,1898.00
             353.00,1898.00 353.00,1915.00 353.00,1915.00
             353.00,1915.00 352.00,1931.00 352.00,1931.00
             352.00,1931.00 352.00,1947.00 352.00,1947.00
             352.00,1947.00 351.00,1963.00 351.00,1963.00
             351.00,1963.00 351.00,1980.00 351.00,1980.00
             351.00,1980.00 350.00,1996.00 350.00,1996.00
             350.00,1996.00 350.00,2013.00 350.00,2013.00
             350.00,2013.00 349.00,2029.00 349.00,2029.00
             349.00,2029.00 349.00,2052.00 349.00,2052.00
             349.00,2052.00 348.00,2068.00 348.00,2068.00
             348.00,2068.00 348.00,2096.00 348.00,2096.00
             348.00,2096.00 347.00,2112.00 347.00,2112.00
             347.00,2112.00 347.00,2140.00 347.00,2140.00
             347.00,2140.00 346.00,2156.00 346.00,2156.00
             346.00,2156.00 346.00,2185.00 346.00,2185.00
             346.00,2185.00 345.00,2202.00 345.00,2202.00
             345.00,2202.00 345.00,2247.00 345.00,2247.00
             345.00,2247.00 344.00,2264.00 344.00,2264.00
             344.00,2264.00 344.00,2327.00 344.00,2327.00
             344.00,2327.00 343.00,2342.00 343.00,2342.00
             343.00,2342.00 343.00,2454.00 343.00,2454.00
             343.00,2454.00 342.00,2468.00 342.00,2468.00
             342.00,2468.00 342.00,2496.00 342.00,2496.00
             342.00,2496.00 343.00,2511.00 343.00,2511.00
             343.00,2511.00 343.00,2642.00 343.00,2642.00
             343.00,2642.00 344.00,2657.00 344.00,2657.00
             344.00,2657.00 344.00,2700.00 344.00,2700.00
             344.00,2700.00 345.00,2716.00 345.00,2716.00
             345.00,2716.00 345.00,2745.00 345.00,2745.00
             345.00,2745.00 346.00,2762.00 346.00,2762.00
             346.00,2762.00 346.00,2786.00 346.00,2786.00
             346.00,2786.00 347.00,2803.00 347.00,2803.00
             347.00,2803.00 348.00,2849.00 348.00,2849.00
             348.00,2849.00 349.00,2864.00 349.00,2864.00
             349.00,2864.00 350.00,2899.00 350.00,2899.00
             350.00,2899.00 350.96,2911.00 350.96,2911.00
             350.96,2911.00 350.96,2923.00 350.96,2923.00
             350.96,2923.00 352.04,2938.00 352.04,2938.00
             352.04,2938.00 352.04,2951.00 352.04,2951.00
             352.04,2951.00 353.00,2965.00 353.00,2965.00
             353.00,2965.00 354.00,2980.00 354.00,2980.00
             354.00,2980.00 355.00,3005.00 355.00,3005.00
             355.00,3005.00 356.00,3022.00 356.00,3022.00
             356.00,3022.00 356.96,3035.00 356.96,3035.00
             356.96,3035.00 359.91,3081.00 359.91,3081.00
             359.91,3081.00 361.09,3105.00 361.09,3105.00
             361.09,3105.00 362.91,3125.00 362.91,3125.00
             362.91,3125.00 371.83,3236.00 371.83,3236.00
             371.83,3236.00 377.08,3292.00 377.08,3292.00
             377.38,3295.68 378.58,3311.38 380.60,3313.40
             382.79,3315.58 388.03,3314.88 391.00,3315.09
             391.00,3315.09 417.00,3317.04 417.00,3317.04
             417.00,3317.04 452.00,3319.91 452.00,3319.91
             452.00,3319.91 513.00,3324.09 513.00,3324.09
             513.00,3324.09 577.00,3328.91 577.00,3328.91
             577.00,3328.91 674.00,3335.09 674.00,3335.09
             674.00,3335.09 712.00,3338.00 712.00,3338.00
             712.00,3338.00 721.00,3338.00 721.00,3338.00
             721.00,3338.00 747.00,3340.00 747.00,3340.00
             747.00,3340.00 793.00,3342.91 793.00,3342.91
             793.00,3342.91 835.00,3345.09 835.00,3345.09
             835.00,3345.09 863.00,3347.00 863.00,3347.00
             863.00,3347.00 883.00,3348.00 883.00,3348.00
             883.00,3348.00 898.00,3349.00 898.00,3349.00
             898.00,3349.00 938.00,3351.00 938.00,3351.00
             938.00,3351.00 948.00,3351.96 948.00,3351.96
             948.00,3351.96 956.00,3351.96 956.00,3351.96
             956.00,3351.96 974.00,3353.00 974.00,3353.00
             974.00,3353.00 989.00,3354.00 989.00,3354.00
             989.00,3354.00 1005.00,3355.00 1005.00,3355.00
             1005.00,3355.00 1031.00,3356.00 1031.00,3356.00
             1031.00,3356.00 1045.00,3357.00 1045.00,3357.00
             1045.00,3357.00 1070.00,3358.00 1070.00,3358.00
             1070.00,3358.00 1086.00,3359.00 1086.00,3359.00
             1086.00,3359.00 1104.00,3360.00 1104.00,3360.00
             1104.00,3360.00 1126.00,3361.00 1126.00,3361.00
             1126.00,3361.00 1144.00,3362.00 1144.00,3362.00
             1144.00,3362.00 1173.00,3363.00 1173.00,3363.00
             1173.00,3363.00 1187.00,3364.00 1187.00,3364.00
             1187.00,3364.00 1218.00,3365.00 1218.00,3365.00
             1218.00,3365.00 1233.00,3366.00 1233.00,3366.00
             1233.00,3366.00 1255.00,3367.00 1255.00,3367.00
             1255.00,3367.00 1308.00,3369.00 1308.00,3369.00
             1308.00,3369.00 1324.00,3370.04 1324.00,3370.04
             1324.00,3370.04 1337.00,3370.04 1337.00,3370.04
             1337.00,3370.04 1349.00,3371.00 1349.00,3371.00
             1349.00,3371.00 1385.00,3372.00 1385.00,3372.00
             1385.00,3372.00 1400.00,3373.04 1400.00,3373.04
             1400.00,3373.04 1413.00,3373.04 1413.00,3373.04
             1413.00,3373.04 1425.00,3374.04 1425.00,3374.04
             1425.00,3374.04 1439.00,3374.04 1439.00,3374.04
             1439.00,3374.04 1451.00,3375.00 1451.00,3375.00
             1451.00,3375.00 1491.00,3376.00 1491.00,3376.00
             1491.00,3376.00 1508.00,3377.00 1508.00,3377.00
             1508.00,3377.00 1522.00,3377.00 1522.00,3377.00
             1522.00,3377.00 1537.00,3378.04 1537.00,3378.04
             1537.00,3378.04 1554.00,3378.04 1554.00,3378.04
             1554.00,3378.04 1565.00,3379.00 1565.00,3379.00
             1565.00,3379.00 1579.00,3379.00 1579.00,3379.00
             1579.00,3379.00 1595.00,3380.00 1595.00,3380.00
             1595.00,3380.00 1680.00,3382.00 1680.00,3382.00
             1680.00,3382.00 1697.00,3383.00 1697.00,3383.00
             1697.00,3383.00 1715.00,3383.00 1715.00,3383.00
             1715.00,3383.00 1729.00,3384.00 1729.00,3384.00
             1729.00,3384.00 1754.00,3384.00 1754.00,3384.00
             1754.00,3384.00 1771.00,3385.00 1771.00,3385.00
             1771.00,3385.00 1836.00,3386.00 1836.00,3386.00
             1836.00,3386.00 1853.00,3387.00 1853.00,3387.00
             1853.00,3387.00 1883.00,3387.00 1883.00,3387.00
             1883.00,3387.00 1900.00,3388.00 1900.00,3388.00
             1900.00,3388.00 1935.00,3388.00 1935.00,3388.00
             1935.00,3388.00 1950.00,3389.00 1950.00,3389.00
             1950.00,3389.00 1985.00,3389.00 1985.00,3389.00
             1985.00,3389.00 2002.00,3390.00 2002.00,3390.00
             2002.00,3390.00 2049.00,3390.00 2049.00,3390.00
             2049.00,3390.00 2066.00,3391.00 2066.00,3391.00
             2066.00,3391.00 2118.00,3391.00 2118.00,3391.00
             2118.00,3391.00 2135.00,3392.00 2135.00,3392.00
             2135.00,3392.00 2211.00,3392.00 2211.00,3392.00
             2211.00,3392.00 2226.00,3393.00 2226.00,3393.00
             2226.00,3393.00 2422.00,3393.00 2422.00,3393.00
             2422.00,3393.00 2437.00,3394.00 2437.00,3394.00
             2437.00,3394.00 2572.00,3394.00 2572.00,3394.00
             2572.00,3394.00 2587.00,3393.00 2587.00,3393.00
             2587.00,3393.00 2713.00,3393.00 2713.00,3393.00
             2713.00,3393.00 2728.00,3392.00 2728.00,3392.00
             2728.00,3392.00 2803.00,3392.00 2803.00,3392.00
             2803.00,3392.00 2818.00,3391.00 2818.00,3391.00
             2818.00,3391.00 2870.00,3391.00 2870.00,3391.00
             2870.00,3391.00 2887.00,3390.00 2887.00,3390.00
             2887.00,3390.00 2937.00,3390.00 2937.00,3390.00
             2937.00,3390.00 2952.00,3389.00 2952.00,3389.00
             2952.00,3389.00 2982.00,3389.00 2982.00,3389.00
             2982.00,3389.00 2999.00,3388.00 2999.00,3388.00
             2999.00,3388.00 3028.00,3388.00 3028.00,3388.00
             3028.00,3388.00 3045.00,3387.00 3045.00,3387.00
             3045.00,3387.00 3075.00,3387.00 3075.00,3387.00
             3075.00,3387.00 3092.00,3386.00 3092.00,3386.00
             3092.00,3386.00 3147.00,3385.00 3147.00,3385.00
             3147.00,3385.00 3164.00,3384.00 3164.00,3384.00
             3164.00,3384.00 3183.00,3384.00 3183.00,3384.00
             3183.00,3384.00 3199.00,3383.00 3199.00,3383.00
             3199.00,3383.00 3217.00,3383.00 3217.00,3383.00
             3217.00,3383.00 3233.00,3382.00 3233.00,3382.00
             3233.00,3382.00 3275.00,3381.00 3275.00,3381.00
             3275.00,3381.00 3289.00,3380.00 3289.00,3380.00
             3289.00,3380.00 3304.00,3380.00 3304.00,3380.00
             3304.00,3380.00 3320.00,3378.96 3320.00,3378.96
             3320.00,3378.96 3333.00,3378.96 3333.00,3378.96
             3333.00,3378.96 3345.00,3378.00 3345.00,3378.00
             3345.00,3378.00 3401.00,3376.00 3401.00,3376.00
             3401.00,3376.00 3416.00,3375.00 3416.00,3375.00
             3416.00,3375.00 3435.00,3374.00 3435.00,3374.00
             3443.28,3373.91 3444.51,3374.12 3453.00,3373.00
             3453.00,3373.00 3453.00,3351.00 3453.00,3351.00
             3453.00,3351.00 3452.00,3335.00 3452.00,3335.00
             3452.00,3335.00 3452.00,3305.00 3452.00,3305.00
             3452.00,3305.00 3451.00,3288.00 3451.00,3288.00
             3451.00,3288.00 3450.00,3210.00 3450.00,3210.00
             3450.00,3210.00 3449.00,3193.00 3449.00,3193.00
             3449.00,3193.00 3449.00,3163.00 3449.00,3163.00
             3449.00,3163.00 3448.00,3146.00 3448.00,3146.00
             3448.00,3146.00 3448.00,3116.00 3448.00,3116.00
             3448.00,3116.00 3447.00,3099.00 3447.00,3099.00
             3447.00,3099.00 3447.00,3065.00 3447.00,3065.00
             3447.00,3065.00 3446.00,3048.00 3446.00,3048.00
             3446.00,3048.00 3446.00,3014.00 3446.00,3014.00
             3446.00,3014.00 3445.00,2997.00 3445.00,2997.00
             3445.00,2997.00 3443.00,2859.00 3443.00,2859.00
             3443.00,2859.00 3442.00,2842.00 3442.00,2842.00
             3442.00,2842.00 3442.00,2808.00 3442.00,2808.00
             3442.00,2808.00 3441.00,2791.00 3441.00,2791.00
             3441.00,2791.00 3441.00,2751.00 3441.00,2751.00
             3441.00,2751.00 3440.00,2734.00 3440.00,2734.00
             3440.00,2734.00 3440.00,2694.00 3440.00,2694.00
             3440.00,2694.00 3439.00,2677.00 3439.00,2677.00
             3439.00,2677.00 3439.00,2638.00 3439.00,2638.00
             3439.00,2638.00 3438.00,2621.00 3438.00,2621.00
             3438.00,2621.00 3438.00,2579.00 3438.00,2579.00
             3438.00,2579.00 3437.00,2564.00 3437.00,2564.00
             3437.00,2564.00 3437.00,2524.00 3437.00,2524.00
             3437.00,2524.00 3436.00,2507.00 3436.00,2507.00
             3436.00,2507.00 3436.00,2467.00 3436.00,2467.00
             3436.00,2467.00 3435.00,2450.00 3435.00,2450.00
             3435.00,2450.00 3435.00,2410.00 3435.00,2410.00
             3435.00,2410.00 3434.00,2393.00 3434.00,2393.00
             3434.00,2393.00 3434.00,2345.00 3434.00,2345.00
             3434.00,2345.00 3433.00,2328.00 3433.00,2328.00
             3433.00,2328.00 3433.00,2280.00 3433.00,2280.00
             3433.00,2280.00 3432.00,2264.00 3432.00,2264.00
             3432.00,2264.00 3432.00,2216.00 3432.00,2216.00
             3432.00,2216.00 3431.00,2199.00 3431.00,2199.00
             3431.00,2199.00 3431.00,2151.00 3431.00,2151.00
             3431.00,2151.00 3430.00,2134.00 3430.00,2134.00
             3430.00,2134.00 3430.00,2086.00 3430.00,2086.00
             3430.00,2086.00 3429.00,2069.00 3429.00,2069.00
             3429.00,2069.00 3429.00,2020.00 3429.00,2020.00
             3429.00,2020.00 3428.00,2005.00 3428.00,2005.00
             3428.00,2005.00 3428.00,1955.00 3428.00,1955.00
             3428.00,1955.00 3427.00,1940.00 3427.00,1940.00
             3427.00,1940.00 3427.00,1878.00 3427.00,1878.00
             3427.00,1878.00 3426.00,1863.00 3426.00,1863.00
             3426.00,1863.00 3426.00,1802.00 3426.00,1802.00
             3426.00,1802.00 3425.00,1785.00 3425.00,1785.00
             3425.00,1785.00 3425.00,1725.00 3425.00,1725.00
             3425.00,1725.00 3424.00,1708.00 3424.00,1708.00
             3424.00,1708.00 3424.00,1647.00 3424.00,1647.00
             3424.00,1647.00 3423.00,1630.00 3423.00,1630.00
             3423.00,1630.00 3423.00,1569.00 3423.00,1569.00
             3423.00,1569.00 3422.00,1552.00 3422.00,1552.00
             3422.00,1552.00 3422.00,1491.00 3422.00,1491.00
             3422.00,1491.00 3421.00,1474.00 3421.00,1474.00
             3421.00,1474.00 3421.00,1406.00 3421.00,1406.00
             3421.00,1406.00 3420.00,1391.00 3420.00,1391.00
             3420.00,1391.00 3420.00,1311.00 3420.00,1311.00
             3420.00,1311.00 3419.00,1296.00 3419.00,1296.00
             3419.00,1296.00 3419.00,1217.00 3419.00,1217.00
             3419.00,1217.00 3418.00,1202.00 3418.00,1202.00
             3418.00,1202.00 3418.00,1113.00 3418.00,1113.00
             3418.00,1113.00 3417.00,1098.00 3417.00,1098.00
             3417.00,1098.00 3417.00,1000.00 3417.00,1000.00
             3417.00,1000.00 3416.00,985.00 3416.00,985.00
             3416.00,985.00 3416.00,884.00 3416.00,884.00
             3416.00,884.00 3415.00,869.00 3415.00,869.00
             3415.00,869.00 3415.00,737.00 3415.00,737.00
             3415.00,737.00 3414.00,722.00 3414.00,722.00
             3414.00,722.00 3414.00,579.00 3414.00,579.00
             3414.00,579.00 3413.00,564.00 3413.00,564.00
             3413.00,564.00 3413.00,359.00 3413.00,359.00
             3413.00,359.00 3412.00,344.00 3412.00,344.00
             3412.00,344.00 3412.00,326.96 3412.00,326.96 Z
           M 11448.00,3353.00
           C 11448.00,3353.00 11449.00,3338.00 11449.00,3338.00
             11449.00,3338.00 11449.00,3323.00 11449.00,3323.00
             11449.00,3323.00 11450.00,3306.00 11450.00,3306.00
             11450.00,3306.00 11450.00,3292.00 11450.00,3292.00
             11450.00,3292.00 11451.00,3277.00 11451.00,3277.00
             11451.00,3277.00 11453.00,3205.00 11453.00,3205.00
             11453.00,3205.00 11454.00,3188.00 11454.00,3188.00
             11454.00,3188.00 11456.00,3117.00 11456.00,3117.00
             11456.00,3117.00 11457.00,3102.00 11457.00,3102.00
             11457.00,3102.00 11458.00,3064.00 11458.00,3064.00
             11458.00,3064.00 11458.96,3052.00 11458.96,3052.00
             11458.96,3052.00 11458.96,3038.00 11458.96,3038.00
             11458.96,3038.00 11459.96,3026.00 11459.96,3026.00
             11459.96,3026.00 11459.96,3011.00 11459.96,3011.00
             11459.96,3011.00 11461.04,2996.00 11461.04,2996.00
             11461.04,2996.00 11461.04,2980.00 11461.04,2980.00
             11461.04,2980.00 11462.04,2968.00 11462.04,2968.00
             11462.04,2968.00 11462.04,2954.00 11462.04,2954.00
             11462.04,2954.00 11463.00,2942.00 11463.00,2942.00
             11463.00,2942.00 11464.00,2907.00 11464.00,2907.00
             11464.00,2907.00 11464.96,2895.00 11464.96,2895.00
             11464.96,2895.00 11464.96,2881.00 11464.96,2881.00
             11464.96,2881.00 11466.04,2868.00 11466.04,2868.00
             11466.04,2868.00 11466.04,2854.00 11466.04,2854.00
             11466.04,2854.00 11467.04,2842.00 11467.04,2842.00
             11467.04,2842.00 11467.04,2829.00 11467.04,2829.00
             11467.04,2829.00 11468.00,2817.00 11468.00,2817.00
             11468.00,2817.00 11470.00,2761.00 11470.00,2761.00
             11470.00,2761.00 11471.04,2745.00 11471.04,2745.00
             11471.04,2745.00 11471.04,2733.00 11471.04,2733.00
             11471.04,2733.00 11472.00,2721.00 11472.00,2721.00
             11472.00,2721.00 11473.00,2690.00 11473.00,2690.00
             11473.00,2690.00 11474.00,2676.00 11474.00,2676.00
             11474.00,2676.00 11475.00,2644.00 11475.00,2644.00
             11475.00,2644.00 11476.00,2630.00 11476.00,2630.00
             11476.00,2630.00 11477.00,2599.00 11477.00,2599.00
             11477.00,2599.00 11478.00,2584.00 11478.00,2584.00
             11478.00,2584.00 11479.00,2561.00 11479.00,2561.00
             11479.00,2561.00 11480.00,2538.00 11480.00,2538.00
             11480.00,2538.00 11481.00,2508.00 11481.00,2508.00
             11481.00,2508.00 11482.00,2493.00 11482.00,2493.00
             11482.00,2493.00 11483.00,2470.00 11483.00,2470.00
             11483.00,2470.00 11484.00,2440.00 11484.00,2440.00
             11484.00,2440.00 11485.00,2426.00 11485.00,2426.00
             11485.00,2426.00 11486.00,2395.00 11486.00,2395.00
             11486.00,2395.00 11487.00,2381.00 11487.00,2381.00
             11487.00,2381.00 11488.00,2349.00 11488.00,2349.00
             11488.00,2349.00 11488.96,2339.00 11488.96,2339.00
             11488.96,2339.00 11488.96,2327.00 11488.96,2327.00
             11488.96,2327.00 11490.00,2312.00 11490.00,2312.00
             11490.00,2312.00 11491.00,2289.00 11491.00,2289.00
             11491.00,2289.00 11492.00,2254.00 11492.00,2254.00
             11492.00,2254.00 11493.04,2239.00 11493.04,2239.00
             11493.04,2239.00 11493.04,2225.00 11493.04,2225.00
             11493.04,2225.00 11494.04,2213.00 11494.04,2213.00
             11494.04,2213.00 11494.04,2200.00 11494.04,2200.00
             11494.04,2200.00 11495.00,2188.00 11495.00,2188.00
             11495.00,2188.00 11496.00,2151.00 11496.00,2151.00
             11496.00,2151.00 11497.00,2134.00 11497.00,2134.00
             11497.00,2134.00 11497.00,2120.00 11497.00,2120.00
             11497.00,2120.00 11498.00,2104.00 11498.00,2104.00
             11498.00,2104.00 11498.00,2090.00 11498.00,2090.00
             11498.00,2090.00 11499.00,2074.00 11499.00,2074.00
             11499.00,2074.00 11499.00,2060.00 11499.00,2060.00
             11499.00,2060.00 11500.00,2044.00 11500.00,2044.00
             11500.00,2044.00 11500.00,2025.00 11500.00,2025.00
             11500.00,2025.00 11501.00,2012.00 11501.00,2012.00
             11501.00,2012.00 11501.00,1988.00 11501.00,1988.00
             11501.00,1988.00 11502.00,1971.00 11502.00,1971.00
             11502.00,1971.00 11503.00,1908.00 11503.00,1908.00
             11503.00,1908.00 11504.00,1891.00 11504.00,1891.00
             11504.00,1891.00 11504.00,1847.00 11504.00,1847.00
             11504.00,1847.00 11505.00,1832.00 11505.00,1832.00
             11505.00,1832.00 11505.00,1788.00 11505.00,1788.00
             11505.00,1788.00 11506.00,1771.00 11506.00,1771.00
             11506.00,1771.00 11506.00,1692.00 11506.00,1692.00
             11506.00,1692.00 11507.00,1677.00 11507.00,1677.00
             11507.00,1677.00 11507.00,1413.00 11507.00,1413.00
             11507.00,1413.00 11507.00,1267.00 11507.00,1267.00
             11507.00,1267.00 11506.00,1252.00 11506.00,1252.00
             11506.00,1252.00 11506.00,1148.00 11506.00,1148.00
             11506.00,1148.00 11505.00,1133.00 11505.00,1133.00
             11505.00,1133.00 11505.00,1058.00 11505.00,1058.00
             11505.00,1058.00 11504.00,1043.00 11504.00,1043.00
             11504.00,1043.00 11504.00,968.00 11504.00,968.00
             11504.00,968.00 11503.00,953.00 11503.00,953.00
             11503.00,953.00 11503.00,904.00 11503.00,904.00
             11503.00,904.00 11502.00,887.00 11502.00,887.00
             11502.00,887.00 11502.00,836.00 11502.00,836.00
             11502.00,836.00 11501.00,821.00 11501.00,821.00
             11501.00,821.00 11501.00,773.00 11501.00,773.00
             11501.00,773.00 11500.00,756.00 11500.00,756.00
             11500.00,756.00 11500.00,705.00 11500.00,705.00
             11500.00,705.00 11499.00,690.00 11499.00,690.00
             11499.00,690.00 11499.00,650.00 11499.00,650.00
             11499.00,650.00 11498.00,633.00 11498.00,633.00
             11498.00,633.00 11498.00,596.00 11498.00,596.00
             11498.00,596.00 11497.00,579.00 11497.00,579.00
             11497.00,579.00 11497.00,542.00 11497.00,542.00
             11497.00,542.00 11496.00,525.00 11496.00,525.00
             11496.00,525.00 11496.00,487.00 11496.00,487.00
             11496.00,487.00 11495.00,470.00 11495.00,470.00
             11495.00,470.00 11495.00,431.00 11495.00,431.00
             11495.00,431.00 11494.00,416.00 11494.00,416.00
             11494.00,416.00 11494.00,379.00 11494.00,379.00
             11494.00,376.47 11494.38,371.74 11492.26,369.99
             11490.18,368.26 11480.90,368.00 11478.00,368.00
             11478.00,368.00 11454.00,367.00 11454.00,367.00
             11454.00,367.00 11444.00,366.04 11444.00,366.04
             11444.00,366.04 11434.00,366.04 11434.00,366.04
             11434.00,366.04 11420.00,365.00 11420.00,365.00
             11420.00,365.00 11399.00,364.00 11399.00,364.00
             11399.00,364.00 11382.00,363.00 11382.00,363.00
             11382.00,363.00 11355.00,362.00 11355.00,362.00
             11355.00,362.00 11342.00,361.00 11342.00,361.00
             11342.00,361.00 11316.00,360.00 11316.00,360.00
             11316.00,360.00 11303.00,359.00 11303.00,359.00
             11303.00,359.00 11276.00,358.00 11276.00,358.00
             11276.00,358.00 11259.00,357.00 11259.00,357.00
             11259.00,357.00 11242.00,356.00 11242.00,356.00
             11242.00,356.00 11224.00,355.00 11224.00,355.00
             11224.00,355.00 11198.00,354.00 11198.00,354.00
             11198.00,354.00 11183.00,353.00 11183.00,353.00
             11183.00,353.00 11178.00,353.00 11178.00,353.00
             11178.00,353.00 11163.00,352.00 11163.00,352.00
             11163.00,352.00 11139.00,351.00 11139.00,351.00
             11139.00,351.00 11129.00,350.04 11129.00,350.04
             11129.00,350.04 11119.00,350.04 11119.00,350.04
             11119.00,350.04 11101.00,349.00 11101.00,349.00
             11101.00,349.00 11085.00,348.00 11085.00,348.00
             11085.00,348.00 11066.00,347.00 11066.00,347.00
             11066.00,347.00 11020.00,345.00 11020.00,345.00
             11020.00,345.00 11007.00,344.00 11007.00,344.00
             11007.00,344.00 10980.00,343.00 10980.00,343.00
             10980.00,343.00 10962.00,342.00 10962.00,342.00
             10962.00,342.00 10945.00,341.00 10945.00,341.00
             10945.00,341.00 10927.00,340.00 10927.00,340.00
             10927.00,340.00 10900.00,339.00 10900.00,339.00
             10900.00,339.00 10887.00,338.00 10887.00,338.00
             10887.00,338.00 10859.00,337.00 10859.00,337.00
             10859.00,337.00 10846.00,336.00 10846.00,336.00
             10846.00,336.00 10819.00,335.00 10819.00,335.00
             10819.00,335.00 10806.00,334.00 10806.00,334.00
             10806.00,334.00 10780.00,333.00 10780.00,333.00
             10780.00,333.00 10763.00,332.00 10763.00,332.00
             10763.00,332.00 10745.00,331.00 10745.00,331.00
             10745.00,331.00 10718.00,330.00 10718.00,330.00
             10718.00,330.00 10705.00,329.00 10705.00,329.00
             10705.00,329.00 10677.00,328.00 10677.00,328.00
             10677.00,328.00 10659.00,327.00 10659.00,327.00
             10659.00,327.00 10642.00,326.00 10642.00,326.00
             10642.00,326.00 10624.00,325.00 10624.00,325.00
             10624.00,325.00 10597.00,324.00 10597.00,324.00
             10597.00,324.00 10582.00,323.00 10582.00,323.00
             10582.00,323.00 10537.00,321.00 10537.00,321.00
             10537.00,321.00 10521.00,320.00 10521.00,320.00
             10521.00,320.00 10498.00,319.00 10498.00,319.00
             10498.00,319.00 10476.00,318.00 10476.00,318.00
             10476.00,318.00 10455.00,317.00 10455.00,317.00
             10455.00,317.00 10426.00,316.00 10426.00,316.00
             10426.00,316.00 10413.00,315.00 10413.00,315.00
             10413.00,315.00 10383.00,314.00 10383.00,314.00
             10383.00,314.00 10368.00,313.00 10368.00,313.00
             10368.00,313.00 10346.00,312.00 10346.00,312.00
             10346.00,312.00 10324.00,311.00 10324.00,311.00
             10324.00,311.00 10292.00,310.00 10292.00,310.00
             10292.00,310.00 10277.00,309.00 10277.00,309.00
             10277.00,309.00 10223.00,307.00 10223.00,307.00
             10223.00,307.00 10206.00,305.96 10206.00,305.96
             10206.00,305.96 10194.00,305.96 10194.00,305.96
             10194.00,305.96 10182.00,305.00 10182.00,305.00
             10182.00,305.00 10159.00,304.00 10159.00,304.00
             10159.00,304.00 10125.00,303.00 10125.00,303.00
             10125.00,303.00 10112.00,302.00 10112.00,302.00
             10112.00,302.00 10099.00,302.00 10099.00,302.00
             10099.00,302.00 10083.00,300.96 10083.00,300.96
             10083.00,300.96 10068.00,300.96 10068.00,300.96
             10068.00,300.96 10056.00,299.96 10056.00,299.96
             10056.00,299.96 10041.00,299.96 10041.00,299.96
             10041.00,299.96 10029.00,299.00 10029.00,299.00
             10029.00,299.00 9990.00,298.00 9990.00,298.00
             9990.00,298.00 9977.00,297.00 9977.00,297.00
             9977.00,297.00 9964.00,297.00 9964.00,297.00
             9964.00,297.00 9949.00,295.96 9949.00,295.96
             9949.00,295.96 9933.00,295.96 9933.00,295.96
             9933.00,295.96 9921.00,295.00 9921.00,295.00
             9921.00,295.00 9840.00,293.00 9840.00,293.00
             9840.00,293.00 9823.00,292.00 9823.00,292.00
             9823.00,292.00 9807.00,292.00 9807.00,292.00
             9807.00,292.00 9791.00,291.00 9791.00,291.00
             9791.00,291.00 9774.00,291.00 9774.00,291.00
             9774.00,291.00 9758.00,290.00 9758.00,290.00
             9758.00,290.00 9738.00,290.00 9738.00,290.00
             9738.00,290.00 9722.00,289.00 9722.00,289.00
             9722.00,289.00 9695.00,289.00 9695.00,289.00
             9695.00,289.00 9678.00,288.00 9678.00,288.00
             9678.00,288.00 9606.00,287.00 9606.00,287.00
             9606.00,287.00 9589.00,286.00 9589.00,286.00
             9589.00,286.00 9556.00,286.00 9556.00,286.00
             9556.00,286.00 9539.00,285.00 9539.00,285.00
             9539.00,285.00 9475.00,285.00 9475.00,285.00
             9475.00,285.00 9460.00,284.00 9460.00,284.00
             9460.00,284.00 9397.00,284.00 9397.00,284.00
             9397.00,284.00 9382.00,283.00 9382.00,283.00
             9382.00,283.00 9198.00,283.00 9198.00,283.00
             9198.00,283.00 9183.00,284.00 9183.00,284.00
             9183.00,284.00 9112.00,284.00 9112.00,284.00
             9112.00,284.00 9097.00,285.00 9097.00,285.00
             9097.00,285.00 9057.00,285.00 9057.00,285.00
             9057.00,285.00 9041.00,286.00 9041.00,286.00
             9041.00,286.00 9014.00,286.00 9014.00,286.00
             9014.00,286.00 8999.00,287.00 8999.00,287.00
             8999.00,287.00 8916.00,289.00 8916.00,289.00
             8916.00,289.00 8901.00,290.00 8901.00,290.00
             8901.00,290.00 8844.00,292.00 8844.00,292.00
             8844.00,292.00 8829.00,293.04 8829.00,293.04
             8829.00,293.04 8818.00,293.04 8818.00,293.04
             8818.00,293.04 8806.00,294.00 8806.00,294.00
             8806.00,294.00 8783.00,295.00 8783.00,295.00
             8783.00,295.00 8773.00,295.96 8773.00,295.96
             8773.00,295.96 8763.00,295.96 8763.00,295.96
             8763.00,295.96 8746.00,297.00 8746.00,297.00
             8746.00,297.00 8720.00,298.91 8720.00,298.91
             8720.00,298.91 8679.00,301.09 8679.00,301.09
             8679.00,301.09 8659.00,302.91 8659.00,302.91
             8659.00,302.91 8529.00,313.17 8529.00,313.17
             8529.00,313.17 8479.00,318.17 8479.00,318.17
             8479.00,318.17 8461.00,320.00 8461.00,320.00
             8461.00,320.00 8459.09,342.00 8459.09,342.00
             8459.09,342.00 8452.09,437.00 8452.09,437.00
             8452.09,437.00 8440.91,604.00 8440.91,604.00
             8440.91,604.00 8437.09,657.00 8437.09,657.00
             8437.09,657.00 8435.91,682.00 8435.91,682.00
             8435.91,682.00 8434.00,712.00 8434.00,712.00
             8434.00,712.00 8432.09,738.00 8432.09,738.00
             8432.09,738.00 8430.91,763.00 8430.91,763.00
             8430.91,763.00 8430.00,773.00 8430.00,773.00
             8430.00,773.00 8428.00,811.00 8428.00,811.00
             8428.00,811.00 8427.00,825.00 8427.00,825.00
             8427.00,825.00 8425.00,865.00 8425.00,865.00
             8425.00,865.00 8424.04,875.00 8424.04,875.00
             8424.04,875.00 8424.04,883.00 8424.04,883.00
             8424.04,883.00 8423.00,901.00 8423.00,901.00
             8423.00,901.00 8422.04,911.00 8422.04,911.00
             8422.04,911.00 8422.04,919.00 8422.04,919.00
             8422.04,919.00 8421.00,937.00 8421.00,937.00
             8421.00,937.00 8420.00,955.00 8420.00,955.00
             8420.00,955.00 8419.00,972.00 8419.00,972.00
             8419.00,972.00 8418.00,990.00 8418.00,990.00
             8418.00,990.00 8417.00,1017.00 8417.00,1017.00
             8417.00,1017.00 8416.00,1030.00 8416.00,1030.00
             8416.00,1030.00 8415.00,1057.00 8415.00,1057.00
             8415.00,1057.00 8414.00,1070.00 8414.00,1070.00
             8414.00,1070.00 8413.00,1097.00 8413.00,1097.00
             8413.00,1097.00 8412.00,1112.00 8412.00,1112.00
             8412.00,1112.00 8410.00,1162.00 8410.00,1162.00
             8410.00,1162.00 8409.00,1177.00 8409.00,1177.00
             8409.00,1177.00 8408.00,1207.00 8408.00,1207.00
             8408.00,1207.00 8407.00,1229.00 8407.00,1229.00
             8407.00,1229.00 8406.04,1241.00 8406.04,1241.00
             8406.04,1241.00 8406.04,1254.00 8406.04,1254.00
             8406.04,1254.00 8404.96,1270.00 8404.96,1270.00
             8404.96,1270.00 8404.96,1284.00 8404.96,1284.00
             8404.96,1284.00 8403.96,1296.00 8403.96,1296.00
             8403.96,1296.00 8403.96,1310.00 8403.96,1310.00
             8403.96,1310.00 8402.96,1322.00 8402.96,1322.00
             8402.96,1322.00 8402.96,1335.00 8402.96,1335.00
             8402.96,1335.00 8402.00,1347.00 8402.00,1347.00
             8402.00,1347.00 8401.00,1383.00 8401.00,1383.00
             8401.00,1383.00 8400.00,1396.00 8400.00,1396.00
             8400.00,1396.00 8400.00,1411.00 8400.00,1411.00
             8400.00,1411.00 8399.00,1427.00 8399.00,1427.00
             8399.00,1427.00 8399.00,1441.00 8399.00,1441.00
             8399.00,1441.00 8397.96,1456.00 8397.96,1456.00
             8397.96,1456.00 8397.96,1473.00 8397.96,1473.00
             8397.96,1473.00 8397.00,1484.00 8397.00,1484.00
             8397.00,1484.00 8397.00,1499.00 8397.00,1499.00
             8397.00,1499.00 8396.00,1514.00 8396.00,1514.00
             8396.00,1514.00 8396.00,1529.00 8396.00,1529.00
             8396.00,1529.00 8395.00,1545.00 8395.00,1545.00
             8395.00,1545.00 8395.00,1563.00 8395.00,1563.00
             8395.00,1563.00 8394.00,1576.00 8394.00,1576.00
             8394.00,1576.00 8394.00,1595.00 8394.00,1595.00
             8394.00,1595.00 8393.00,1612.00 8393.00,1612.00
             8393.00,1612.00 8393.00,1630.00 8393.00,1630.00
             8393.00,1630.00 8392.00,1646.00 8392.00,1646.00
             8392.00,1646.00 8392.00,1666.00 8392.00,1666.00
             8392.00,1666.00 8391.00,1682.00 8391.00,1682.00
             8391.00,1682.00 8390.00,1746.00 8390.00,1746.00
             8390.00,1746.00 8389.00,1763.00 8389.00,1763.00
             8389.00,1763.00 8389.00,1787.00 8389.00,1787.00
             8389.00,1787.00 8388.00,1804.00 8388.00,1804.00
             8388.00,1804.00 8388.00,1836.00 8388.00,1836.00
             8388.00,1836.00 8387.00,1853.00 8387.00,1853.00
             8387.00,1853.00 8387.00,1888.00 8387.00,1888.00
             8387.00,1888.00 8386.00,1903.00 8386.00,1903.00
             8386.00,1903.00 8386.00,1942.00 8386.00,1942.00
             8386.00,1942.00 8385.00,1959.00 8385.00,1959.00
             8385.00,1959.00 8385.00,2006.00 8385.00,2006.00
             8385.00,2006.00 8384.00,2023.00 8384.00,2023.00
             8384.00,2023.00 8384.00,2082.00 8384.00,2082.00
             8384.00,2082.00 8383.00,2099.00 8383.00,2099.00
             8383.00,2099.00 8383.00,2180.00 8383.00,2180.00
             8383.00,2180.00 8382.00,2195.00 8382.00,2195.00
             8382.00,2195.00 8382.00,2466.00 8382.00,2466.00
             8382.00,2466.00 8382.00,2617.00 8382.00,2617.00
             8382.00,2617.00 8383.00,2632.00 8383.00,2632.00
             8383.00,2632.00 8383.00,2726.00 8383.00,2726.00
             8383.00,2726.00 8384.00,2741.00 8384.00,2741.00
             8384.00,2741.00 8384.00,2793.00 8384.00,2793.00
             8384.00,2793.00 8385.00,2810.00 8385.00,2810.00
             8385.00,2810.00 8385.00,2862.00 8385.00,2862.00
             8385.00,2862.00 8386.00,2879.00 8386.00,2879.00
             8386.00,2879.00 8386.00,2910.00 8386.00,2910.00
             8386.00,2910.00 8387.00,2927.00 8387.00,2927.00
             8387.00,2927.00 8387.00,2959.00 8387.00,2959.00
             8387.00,2959.00 8388.00,2974.00 8388.00,2974.00
             8388.00,2974.00 8388.00,3003.00 8388.00,3003.00
             8388.00,3003.00 8389.00,3019.00 8389.00,3019.00
             8389.00,3019.00 8389.00,3043.00 8389.00,3043.00
             8389.00,3043.00 8390.00,3058.00 8390.00,3058.00
             8390.00,3058.00 8390.00,3079.00 8390.00,3079.00
             8390.00,3079.00 8391.00,3095.00 8391.00,3095.00
             8391.00,3095.00 8391.00,3115.00 8391.00,3115.00
             8391.00,3115.00 8392.00,3131.00 8392.00,3131.00
             8392.00,3131.00 8392.00,3150.00 8392.00,3150.00
             8392.00,3150.00 8393.04,3166.00 8393.04,3166.00
             8393.04,3166.00 8393.04,3183.00 8393.04,3183.00
             8393.04,3183.00 8394.00,3194.00 8394.00,3194.00
             8394.00,3194.00 8394.00,3209.00 8394.00,3209.00
             8394.00,3209.00 8395.00,3224.00 8395.00,3224.00
             8395.00,3224.00 8396.00,3264.00 8396.00,3264.00
             8396.00,3264.00 8397.00,3279.00 8397.00,3279.00
             8397.00,3279.00 8399.00,3336.00 8399.00,3336.00
             8399.00,3336.00 8400.00,3349.00 8400.00,3349.00
             8400.00,3349.00 8401.00,3379.00 8401.00,3379.00
             8401.04,3381.79 8401.50,3391.32 8403.60,3392.99
             8406.28,3395.10 8419.77,3393.01 8424.00,3392.99
             8424.00,3392.99 8454.00,3392.99 8454.00,3392.99
             8454.00,3392.99 8471.00,3392.00 8471.00,3392.00
             8471.00,3392.00 8548.00,3391.00 8548.00,3391.00
             8548.00,3391.00 8565.00,3390.00 8565.00,3390.00
             8565.00,3390.00 8643.00,3389.00 8643.00,3389.00
             8643.00,3389.00 8660.00,3388.00 8660.00,3388.00
             8660.00,3388.00 8694.00,3388.00 8694.00,3388.00
             8694.00,3388.00 8709.00,3387.00 8709.00,3387.00
             8709.00,3387.00 8744.00,3387.00 8744.00,3387.00
             8744.00,3387.00 8761.00,3386.00 8761.00,3386.00
             8761.00,3386.00 8795.00,3386.00 8795.00,3386.00
             8795.00,3386.00 8812.00,3385.00 8812.00,3385.00
             8812.00,3385.00 8847.00,3385.00 8847.00,3385.00
             8847.00,3385.00 8864.00,3384.00 8864.00,3384.00
             8864.00,3384.00 8949.00,3383.00 8949.00,3383.00
             8949.00,3383.00 8966.00,3382.00 8966.00,3382.00
             8966.00,3382.00 9006.00,3382.00 9006.00,3382.00
             9006.00,3382.00 9021.00,3381.00 9021.00,3381.00
             9021.00,3381.00 9061.00,3381.00 9061.00,3381.00
             9061.00,3381.00 9078.00,3380.00 9078.00,3380.00
             9078.00,3380.00 9118.00,3380.00 9118.00,3380.00
             9118.00,3380.00 9135.00,3379.00 9135.00,3379.00
             9135.00,3379.00 9177.00,3379.00 9177.00,3379.00
             9177.00,3379.00 9192.00,3378.00 9192.00,3378.00
             9192.00,3378.00 9232.00,3378.00 9232.00,3378.00
             9232.00,3378.00 9249.00,3377.00 9249.00,3377.00
             9249.00,3377.00 9288.00,3377.00 9288.00,3377.00
             9288.00,3377.00 9305.00,3376.00 9305.00,3376.00
             9305.00,3376.00 9345.00,3376.00 9345.00,3376.00
             9345.00,3376.00 9362.00,3375.00 9362.00,3375.00
             9362.00,3375.00 9410.00,3375.00 9410.00,3375.00
             9410.00,3375.00 9425.00,3374.00 9425.00,3374.00
             9425.00,3374.00 9473.00,3374.00 9473.00,3374.00
             9473.00,3374.00 9490.00,3373.00 9490.00,3373.00
             9490.00,3373.00 9539.00,3373.00 9539.00,3373.00
             9539.00,3373.00 9554.00,3372.00 9554.00,3372.00
             9554.00,3372.00 9602.00,3372.00 9602.00,3372.00
             9602.00,3372.00 9619.00,3371.00 9619.00,3371.00
             9619.00,3371.00 9668.00,3371.00 9668.00,3371.00
             9668.00,3371.00 9683.00,3370.00 9683.00,3370.00
             9683.00,3370.00 9731.00,3370.00 9731.00,3370.00
             9731.00,3370.00 9748.00,3369.00 9748.00,3369.00
             9748.00,3369.00 9796.00,3369.00 9796.00,3369.00
             9796.00,3369.00 9813.00,3368.00 9813.00,3368.00
             9813.00,3368.00 9870.00,3368.00 9870.00,3368.00
             9870.00,3368.00 9885.00,3367.00 9885.00,3367.00
             9885.00,3367.00 9948.00,3367.00 9948.00,3367.00
             9948.00,3367.00 9963.00,3366.00 9963.00,3366.00
             9963.00,3366.00 10024.00,3366.00 10024.00,3366.00
             10024.00,3366.00 10041.00,3365.00 10041.00,3365.00
             10041.00,3365.00 10102.00,3365.00 10102.00,3365.00
             10102.00,3365.00 10119.00,3364.00 10119.00,3364.00
             10119.00,3364.00 10179.00,3364.00 10179.00,3364.00
             10179.00,3364.00 10196.00,3363.00 10196.00,3363.00
             10196.00,3363.00 10257.00,3363.00 10257.00,3363.00
             10257.00,3363.00 10274.00,3362.00 10274.00,3362.00
             10274.00,3362.00 10335.00,3362.00 10335.00,3362.00
             10335.00,3362.00 10352.00,3361.00 10352.00,3361.00
             10352.00,3361.00 10431.00,3361.00 10431.00,3361.00
             10431.00,3361.00 10446.00,3360.00 10446.00,3360.00
             10446.00,3360.00 10526.00,3360.00 10526.00,3360.00
             10526.00,3360.00 10541.00,3359.00 10541.00,3359.00
             10541.00,3359.00 10622.00,3359.00 10622.00,3359.00
             10622.00,3359.00 10637.00,3358.00 10637.00,3358.00
             10637.00,3358.00 10736.00,3358.00 10736.00,3358.00
             10736.00,3358.00 10751.00,3357.00 10751.00,3357.00
             10751.00,3357.00 10848.00,3357.00 10848.00,3357.00
             10848.00,3357.00 10865.00,3356.00 10865.00,3356.00
             10865.00,3356.00 10987.00,3356.00 10987.00,3356.00
             10987.00,3356.00 11002.00,3355.00 11002.00,3355.00
             11002.00,3355.00 11134.00,3355.00 11134.00,3355.00
             11134.00,3355.00 11149.00,3354.00 11149.00,3354.00
             11149.00,3354.00 11341.00,3354.00 11341.00,3354.00
             11341.00,3354.00 11356.00,3353.00 11356.00,3353.00
             11356.00,3353.00 11448.00,3353.00 11448.00,3353.00 Z" />
</svg>
