<svg id="svg" version="1.1" xmlns="http://www.w3.org/2000/svg" xmlns:xlink="http://www.w3.org/1999/xlink" width="400" height="200" viewBox="0, 0, 400,200"><g id="svgg"><path id="path0" d="M46.460 9.118 C 46.668 9.158,46.968 9.156,47.127 9.115 C 47.286 9.073,47.117 9.040,46.750 9.042 C 46.383 9.044,46.253 9.078,46.460 9.118 M57.208 9.115 C 57.369 9.157,57.631 9.157,57.792 9.115 C 57.952 9.073,57.821 9.039,57.500 9.039 C 57.179 9.039,57.048 9.073,57.208 9.115 M316.958 9.618 C 317.165 9.657,317.502 9.657,317.708 9.618 C 317.915 9.578,317.746 9.545,317.333 9.545 C 316.921 9.545,316.752 9.578,316.958 9.618 M153.211 10.120 C 153.464 10.158,153.839 10.157,154.044 10.117 C 154.249 10.078,154.042 10.046,153.583 10.048 C 153.125 10.049,152.957 10.081,153.211 10.120 M250.083 10.106 C 249.273 10.149,238.996 10.338,219.583 10.667 C 201.208 10.979,183.417 11.194,166.972 11.305 C 157.836 11.366,150.319 11.459,150.267 11.511 C 150.215 11.563,150.057 14.713,149.917 18.511 C 149.776 22.309,149.438 30.554,149.166 36.833 C 148.397 54.558,148.335 56.559,148.224 67.583 C 148.127 77.147,148.366 103.082,148.603 108.670 L 148.706 111.089 163.061 111.809 C 212.031 114.266,228.648 114.516,246.583 113.063 C 248.417 112.914,249.927 112.783,249.939 112.771 C 250.047 112.666,251.051 96.769,251.409 89.500 C 252.616 64.979,252.921 35.502,252.170 16.150 C 252.079 13.822,252.004 11.485,252.003 10.958 L 252.000 10.000 251.458 10.031 C 251.160 10.048,250.542 10.082,250.083 10.106 M115.548 12.750 C 115.549 13.208,115.581 13.376,115.620 13.123 C 115.658 12.869,115.657 12.494,115.617 12.289 C 115.578 12.084,115.546 12.292,115.548 12.750 M146.872 66.000 C 146.872 66.321,146.906 66.452,146.948 66.292 C 146.990 66.131,146.990 65.869,146.948 65.708 C 146.906 65.548,146.872 65.679,146.872 66.000 M146.879 83.167 C 146.879 83.579,146.911 83.748,146.951 83.542 C 146.991 83.335,146.991 82.998,146.951 82.792 C 146.911 82.585,146.879 82.754,146.879 83.167 M11.545 84.000 C 11.545 84.412,11.578 84.581,11.618 84.375 C 11.657 84.169,11.657 83.831,11.618 83.625 C 11.578 83.419,11.545 83.587,11.545 84.000 M383.042 113.619 C 383.294 113.658,383.706 113.658,383.958 113.619 C 384.210 113.581,384.004 113.550,383.500 113.550 C 382.996 113.550,382.790 113.581,383.042 113.619 M83.466 114.957 C 84.227 114.988,85.427 114.988,86.133 114.957 C 86.839 114.926,86.217 114.901,84.750 114.901 C 83.283 114.901,82.706 114.927,83.466 114.957 M302.081 171.250 C 302.081 181.975,302.101 186.338,302.125 180.945 C 302.149 175.553,302.149 166.778,302.125 161.445 C 302.101 156.113,302.081 160.525,302.081 171.250 M24.708 178.125 C 30.277 178.149,39.390 178.149,44.958 178.125 C 50.527 178.101,45.971 178.081,34.833 178.081 C 23.696 178.081,19.140 178.101,24.708 178.125 " stroke="none" fill="#fbfbfb" fill-rule="evenodd"></path><path id="path1" d="M245.319 8.896 C 245.281 8.930,242.063 9.007,238.167 9.066 C 234.271 9.126,229.771 9.209,228.167 9.251 C 225.222 9.328,219.180 9.426,207.583 9.585 C 204.100 9.632,199.075 9.706,196.417 9.750 C 193.758 9.793,186.558 9.870,180.417 9.922 C 174.275 9.974,166.850 10.046,163.917 10.083 C 160.983 10.119,156.467 10.153,153.881 10.158 C 149.577 10.166,149.166 10.191,149.026 10.458 C 148.943 10.619,148.824 12.550,148.764 14.750 C 148.703 16.950,148.621 19.350,148.582 20.083 C 148.543 20.817,148.468 22.729,148.417 24.333 C 148.365 25.938,148.289 27.887,148.249 28.667 C 148.209 29.446,148.134 31.246,148.082 32.667 C 148.030 34.087,147.956 35.775,147.917 36.417 C 147.878 37.058,147.801 38.858,147.746 40.417 C 147.692 41.975,147.619 43.550,147.585 43.917 C 147.551 44.283,147.475 46.196,147.418 48.167 C 147.360 50.137,147.281 52.012,147.242 52.333 C 146.697 56.850,146.988 111.515,147.561 112.114 C 147.691 112.249,150.466 112.446,156.417 112.741 C 161.183 112.977,165.646 113.205,166.333 113.247 C 167.021 113.289,168.483 113.365,169.583 113.415 C 171.485 113.502,173.036 113.578,176.417 113.748 C 179.073 113.883,186.258 114.216,190.833 114.418 C 213.217 115.405,235.005 115.370,246.750 114.328 C 251.627 113.896,251.102 114.239,251.327 111.333 C 251.557 108.352,251.641 107.198,251.752 105.500 C 251.802 104.721,251.877 103.596,251.918 103.000 C 251.958 102.404,252.033 101.204,252.084 100.333 C 252.134 99.462,252.209 98.188,252.250 97.500 C 252.358 95.682,252.481 93.485,252.581 91.583 C 252.629 90.667,252.706 89.204,252.754 88.333 C 252.870 86.182,253.133 79.874,253.251 76.417 C 253.304 74.858,253.378 72.871,253.415 72.000 C 253.877 61.251,253.873 24.866,253.410 14.500 C 253.219 10.225,253.150 9.108,253.068 8.975 C 252.985 8.841,245.466 8.764,245.319 8.896 M32.496 9.220 C 32.452 9.261,28.404 9.348,23.500 9.413 C 18.596 9.479,14.572 9.544,14.559 9.558 C 14.545 9.572,14.487 10.483,14.430 11.583 C 14.372 12.683,14.291 14.221,14.249 15.000 C 14.207 15.779,14.132 17.279,14.081 18.333 C 14.031 19.387,13.957 20.887,13.915 21.667 C 13.827 23.333,13.711 25.668,13.582 28.333 C 13.531 29.387,13.454 30.887,13.409 31.667 C 13.365 32.446,13.218 35.408,13.083 38.250 C 12.948 41.092,12.801 44.129,12.756 45.000 C 12.712 45.871,12.634 47.633,12.583 48.917 C 12.532 50.200,12.457 51.887,12.416 52.667 C 12.375 53.446,12.300 55.433,12.248 57.083 C 12.197 58.733,12.124 60.608,12.086 61.250 C 11.760 66.808,11.620 91.717,11.879 98.083 C 12.052 102.334,12.371 107.161,12.673 110.083 C 12.758 110.908,12.829 111.708,12.830 111.860 C 12.834 112.218,13.179 112.267,17.833 112.583 C 26.555 113.173,32.570 113.532,37.417 113.750 C 38.517 113.799,40.129 113.874,41.000 113.916 C 42.784 114.002,45.652 114.121,49.042 114.248 C 50.302 114.295,52.327 114.372,53.542 114.419 C 63.813 114.818,91.042 115.014,100.417 114.757 C 106.806 114.582,115.568 114.298,116.000 114.253 C 116.229 114.229,116.520 114.200,116.647 114.188 C 116.870 114.167,116.824 102.931,116.583 98.083 C 116.541 97.258,116.467 93.471,116.417 89.667 C 116.367 85.862,116.291 81.287,116.249 79.500 C 116.207 77.712,116.133 72.950,116.084 68.917 C 116.035 64.883,115.960 59.296,115.916 56.500 C 115.833 51.114,115.724 40.291,115.571 22.253 C 115.509 14.917,115.420 11.220,115.305 11.149 C 115.209 11.090,114.408 11.030,113.524 11.016 C 111.473 10.984,102.235 10.638,93.000 10.247 C 91.946 10.202,89.246 10.090,87.000 9.997 C 84.754 9.905,82.354 9.794,81.667 9.753 C 80.979 9.711,78.917 9.629,77.083 9.570 C 75.250 9.512,73.450 9.432,73.083 9.393 C 72.175 9.296,32.596 9.128,32.496 9.220 M303.498 9.718 C 303.453 9.759,301.880 9.846,300.003 9.910 C 298.125 9.975,296.325 10.054,296.003 10.087 C 295.680 10.119,294.629 10.190,293.667 10.244 C 292.704 10.298,291.617 10.376,291.250 10.418 C 290.883 10.459,290.096 10.532,289.500 10.580 C 286.733 10.802,286.500 10.852,286.500 11.230 C 286.500 11.524,286.240 15.335,285.753 22.167 C 285.663 23.438,285.241 30.718,285.081 33.750 C 284.884 37.517,284.837 38.530,284.749 40.917 C 284.698 42.292,284.624 44.054,284.584 44.833 C 284.544 45.612,284.467 47.825,284.412 49.750 C 284.357 51.675,284.284 53.850,284.249 54.583 C 283.827 63.386,283.829 100.063,284.251 107.750 C 284.281 108.300,284.356 110.100,284.417 111.750 C 284.548 115.289,284.323 114.898,286.210 114.862 C 287.057 114.846,291.462 114.760,296.000 114.671 C 311.156 114.374,321.358 114.193,329.083 114.085 C 347.180 113.831,359.296 113.695,375.083 113.568 C 381.958 113.512,387.595 113.456,387.608 113.442 C 387.634 113.416,387.772 110.020,387.921 105.750 C 387.966 104.467,388.041 102.442,388.087 101.250 C 388.134 100.058,388.210 98.108,388.256 96.917 C 388.302 95.725,388.374 93.962,388.417 93.000 C 388.460 92.037,388.535 90.313,388.584 89.167 C 388.706 86.308,388.822 83.745,388.923 81.667 C 389.127 77.466,389.344 71.747,389.459 67.500 C 389.714 58.093,389.559 23.743,389.223 15.208 L 389.116 12.500 388.517 12.490 C 388.187 12.485,387.654 12.455,387.333 12.424 C 387.012 12.393,385.625 12.319,384.250 12.261 C 382.875 12.202,381.225 12.121,380.583 12.081 C 379.942 12.041,378.517 11.967,377.417 11.916 C 374.386 11.776,370.022 11.560,367.333 11.417 C 366.554 11.375,365.054 11.300,364.000 11.251 C 362.946 11.201,361.446 11.123,360.667 11.079 C 359.887 11.035,357.563 10.923,355.500 10.831 C 353.438 10.740,351.075 10.629,350.250 10.586 C 349.425 10.543,347.512 10.463,346.000 10.410 C 344.488 10.356,342.837 10.284,342.333 10.250 C 341.829 10.215,339.579 10.136,337.333 10.073 C 335.087 10.009,332.950 9.933,332.583 9.902 C 331.502 9.812,303.588 9.635,303.498 9.718 M252.067 12.292 C 252.873 29.155,252.773 58.422,251.830 81.000 C 251.394 91.455,250.143 112.584,249.950 112.772 C 249.931 112.789,248.529 112.921,246.833 113.064 C 231.863 114.331,215.150 114.291,185.250 112.917 C 173.358 112.370,148.746 111.125,148.682 111.066 C 148.286 110.698,148.102 61.059,148.466 52.500 C 148.585 49.704,148.864 43.254,149.085 38.167 C 149.307 33.079,149.606 25.504,149.751 21.333 C 149.895 17.162,150.054 13.206,150.104 12.542 L 150.195 11.333 158.306 11.332 C 174.655 11.330,223.558 10.672,244.083 10.178 C 246.925 10.109,249.859 10.041,250.604 10.027 L 251.957 10.000 252.067 12.292 M178.333 151.917 L 178.333 178.000 179.000 178.000 L 179.667 178.000 179.667 169.702 C 179.667 159.251,179.788 158.694,182.703 155.796 C 187.671 150.856,196.014 151.709,197.318 157.292 C 197.633 158.640,197.644 158.996,197.655 168.625 L 197.667 178.000 198.340 178.000 L 199.014 178.000 198.963 167.708 C 198.904 156.099,198.956 156.577,197.538 154.511 C 193.904 149.212,183.564 150.889,180.000 157.355 L 179.506 158.250 179.503 142.042 L 179.500 125.833 178.917 125.833 L 178.333 125.833 178.333 151.917 M385.871 151.125 L 385.917 176.417 386.301 177.138 C 386.763 178.002,387.689 178.491,388.875 178.496 L 389.667 178.500 389.667 177.750 L 389.667 177.000 388.926 177.000 C 388.075 177.000,387.380 176.513,387.263 175.833 C 387.224 175.604,387.186 164.260,387.179 150.625 L 387.167 125.833 386.496 125.833 L 385.825 125.833 385.871 151.125 M14.667 130.000 L 14.667 130.667 32.422 130.667 L 50.177 130.667 44.914 137.625 C 31.590 155.241,22.797 167.016,17.001 175.000 C 16.236 176.054,15.426 177.160,15.202 177.458 L 14.794 178.000 34.814 178.000 L 54.833 178.000 54.833 177.333 L 54.833 176.667 36.083 176.667 C 25.771 176.667,17.333 176.618,17.333 176.557 C 17.333 176.497,20.577 172.138,24.542 166.870 C 28.506 161.603,31.863 157.133,32.000 156.938 C 32.137 156.743,36.411 151.034,41.497 144.250 C 46.583 137.467,51.177 131.335,51.705 130.625 L 52.665 129.333 33.666 129.333 L 14.667 129.333 14.667 130.000 M110.508 142.467 C 109.298 143.677,110.380 145.462,112.005 144.937 C 113.566 144.432,113.278 142.326,111.612 142.056 C 111.102 141.973,110.942 142.033,110.508 142.467 M339.724 142.315 C 338.519 143.066,338.969 144.841,340.424 145.071 C 341.318 145.213,342.339 143.971,342.018 143.133 C 341.649 142.169,340.574 141.785,339.724 142.315 M220.782 151.337 C 209.919 153.054,205.489 166.627,213.246 174.427 C 218.161 179.369,226.166 179.779,231.701 175.373 L 232.319 174.882 231.861 174.443 L 231.404 174.005 230.418 174.742 C 224.325 179.299,215.590 177.452,212.201 170.891 L 211.499 169.531 212.708 169.032 C 213.373 168.757,216.092 167.656,218.750 166.585 C 225.562 163.840,234.741 160.119,234.796 160.080 C 234.926 159.987,234.036 158.258,233.252 157.079 C 230.298 152.639,225.762 150.551,220.782 151.337 M363.090 151.341 C 353.905 152.784,348.718 162.998,353.022 171.167 C 356.940 178.604,366.662 180.725,373.542 175.644 L 374.501 174.936 374.066 174.481 L 373.630 174.027 372.629 174.764 C 367.356 178.647,360.278 178.001,356.045 173.252 C 355.111 172.204,353.757 169.939,353.878 169.626 C 353.956 169.425,355.840 168.642,370.333 162.792 C 373.954 161.330,376.951 160.101,376.992 160.061 C 377.155 159.904,375.817 157.499,374.860 156.229 C 371.966 152.388,367.700 150.616,363.090 151.341 M156.725 151.655 C 146.901 154.305,143.094 165.685,149.413 173.510 C 153.744 178.873,162.256 180.021,167.816 175.994 L 168.543 175.467 168.133 175.058 L 167.724 174.648 166.823 175.241 C 159.458 180.092,149.470 175.827,147.913 167.167 C 145.979 156.416,157.248 148.777,166.649 154.465 L 167.882 155.210 168.187 154.814 C 168.597 154.281,168.603 154.297,167.759 153.691 C 164.925 151.656,160.054 150.757,156.725 151.655 M255.167 151.449 C 250.970 152.154,247.365 154.775,246.015 158.102 L 245.685 158.917 245.645 157.000 C 245.622 155.946,245.591 154.896,245.575 154.667 C 245.558 154.438,245.535 153.706,245.522 153.042 L 245.500 151.833 245.000 151.833 L 244.500 151.833 244.500 164.917 L 244.500 178.000 245.167 178.000 L 245.833 178.000 245.847 169.875 C 245.855 165.406,245.894 161.525,245.934 161.250 C 247.316 151.881,261.792 149.061,263.646 157.800 C 263.772 158.396,263.833 161.825,263.833 168.342 L 263.833 178.000 264.500 178.000 L 265.167 178.000 265.167 167.947 C 265.167 159.187,265.132 157.777,264.898 156.989 C 263.678 152.876,259.802 150.670,255.167 151.449 M312.667 151.674 C 309.115 152.589,305.704 155.204,304.024 158.301 L 303.509 159.250 303.504 155.542 L 303.500 151.833 302.833 151.833 L 302.167 151.833 302.167 171.167 L 302.167 190.500 302.833 190.500 L 303.500 190.500 303.504 180.542 L 303.509 170.583 304.034 171.551 C 308.575 179.923,320.937 180.802,326.739 173.167 C 334.462 163.004,324.968 148.504,312.667 151.674 M128.538 151.758 C 125.178 152.663,123.330 155.190,123.542 158.588 C 123.734 161.678,125.191 163.051,130.266 164.925 C 134.331 166.427,134.799 166.653,135.842 167.619 C 138.691 170.255,137.621 175.433,133.944 176.809 C 130.697 178.024,126.404 177.321,123.966 175.175 L 123.213 174.512 122.853 174.896 C 122.005 175.799,124.993 177.725,128.199 178.342 C 134.228 179.501,138.630 176.460,138.704 171.083 C 138.752 167.629,137.299 166.168,131.746 164.085 C 126.091 161.964,125.021 161.050,124.866 158.205 C 124.582 152.985,131.962 150.732,136.287 154.719 L 137.036 155.409 137.351 155.019 C 137.780 154.489,137.767 154.446,136.958 153.748 C 134.889 151.962,131.103 151.068,128.538 151.758 M281.615 151.750 C 278.268 152.670,276.467 155.019,276.567 158.333 C 276.668 161.641,278.416 163.234,284.167 165.255 C 289.275 167.051,290.424 168.186,290.409 171.417 C 290.393 175.028,288.188 177.137,284.167 177.389 C 281.399 177.562,277.619 176.261,276.579 174.777 L 276.333 174.425 275.905 174.852 L 275.478 175.280 276.406 176.128 C 279.080 178.571,284.765 179.317,288.029 177.652 C 291.975 175.639,293.084 169.650,290.038 166.802 C 289.003 165.833,288.314 165.485,284.306 163.905 C 279.053 161.834,278.044 160.946,277.874 158.250 C 277.550 153.109,284.633 150.830,289.249 154.590 C 290.086 155.272,290.150 155.295,290.401 155.018 C 290.788 154.590,290.739 154.438,290.005 153.774 C 288.034 151.994,284.143 151.055,281.615 151.750 M61.000 151.930 C 61.000 152.034,61.726 153.718,62.533 155.486 C 62.802 156.074,64.558 160.011,66.436 164.236 C 68.315 168.460,70.097 172.442,70.396 173.083 C 70.696 173.725,71.458 175.431,72.088 176.874 C 72.719 178.318,73.285 179.443,73.346 179.374 C 73.436 179.273,76.761 171.177,80.388 162.229 L 81.072 160.541 81.606 161.729 C 82.162 162.967,84.046 167.247,87.427 174.950 C 88.521 177.443,89.467 179.430,89.528 179.366 C 89.611 179.278,101.340 153.129,101.788 152.031 C 101.855 151.866,101.703 151.825,101.173 151.864 L 100.470 151.917 99.344 154.500 C 98.725 155.921,97.313 159.146,96.206 161.667 C 95.099 164.188,93.210 168.493,92.007 171.234 C 90.805 173.975,89.754 176.338,89.672 176.484 C 89.504 176.785,89.697 177.183,86.217 169.333 C 84.978 166.537,83.760 163.800,83.510 163.250 C 83.261 162.700,82.018 159.906,80.749 157.042 L 78.441 151.833 77.804 151.833 C 77.006 151.833,76.904 151.430,78.750 155.543 C 79.621 157.483,80.333 159.152,80.333 159.251 C 80.333 159.397,77.230 167.187,76.682 168.417 C 76.601 168.600,75.836 170.493,74.982 172.624 C 74.129 174.754,73.376 176.442,73.309 176.374 C 73.243 176.306,71.996 173.588,70.540 170.333 C 69.084 167.079,66.625 161.585,65.077 158.125 L 62.262 151.833 61.631 151.833 C 61.284 151.833,61.000 151.877,61.000 151.930 M110.833 164.917 L 110.833 178.000 111.500 178.000 L 112.167 178.000 112.167 164.917 L 112.167 151.833 111.500 151.833 L 110.833 151.833 110.833 164.917 M339.833 164.917 L 339.833 178.000 340.500 178.000 L 341.167 178.000 341.167 164.917 L 341.167 151.833 340.500 151.833 L 339.833 151.833 339.833 164.917 M368.016 152.838 C 370.369 153.471,372.826 155.504,374.648 158.324 C 375.203 159.184,375.295 159.425,375.105 159.531 C 374.975 159.604,372.479 160.630,369.559 161.811 C 366.639 162.992,361.887 164.914,359.000 166.083 C 356.113 167.251,353.661 168.242,353.552 168.284 C 352.926 168.528,352.692 163.673,353.232 161.667 C 355.000 155.103,361.660 151.126,368.016 152.838 M225.963 152.915 C 228.527 153.725,231.059 155.921,232.806 158.852 L 233.165 159.454 230.791 160.410 C 229.485 160.936,228.042 161.520,227.583 161.710 C 227.125 161.899,223.262 163.463,219.000 165.185 L 211.250 168.317 211.027 167.790 C 210.649 166.897,210.582 163.939,210.904 162.326 C 212.280 155.426,219.543 150.887,225.963 152.915 M319.853 153.108 C 328.879 156.271,331.064 168.353,323.708 174.421 C 315.373 181.296,303.006 175.056,303.550 164.250 C 303.964 156.006,312.153 150.410,319.853 153.108 " stroke="none" fill="#040404" fill-rule="evenodd"></path><path id="path2" d="M54.288 9.120 C 54.584 9.157,55.109 9.158,55.455 9.122 C 55.800 9.086,55.558 9.055,54.917 9.055 C 54.275 9.054,53.992 9.083,54.288 9.120 " stroke="none" fill="#7c7c7c" fill-rule="evenodd"></path><path id="path3" d="M47.711 9.120 C 47.964 9.158,48.339 9.157,48.544 9.117 C 48.749 9.078,48.542 9.046,48.083 9.048 C 47.625 9.049,47.457 9.081,47.711 9.120 M56.208 9.115 C 56.369 9.157,56.631 9.157,56.792 9.115 C 56.952 9.073,56.821 9.039,56.500 9.039 C 56.179 9.039,56.048 9.073,56.208 9.115 M313.125 9.624 C 313.790 9.655,314.877 9.655,315.542 9.624 C 316.206 9.592,315.662 9.566,314.333 9.566 C 313.004 9.566,312.460 9.592,313.125 9.624 M154.795 10.121 C 155.094 10.158,155.544 10.157,155.795 10.119 C 156.045 10.081,155.800 10.051,155.250 10.052 C 154.700 10.053,154.495 10.084,154.795 10.121 M160.211 10.120 C 160.464 10.158,160.839 10.157,161.044 10.117 C 161.249 10.078,161.042 10.046,160.583 10.048 C 160.125 10.049,159.957 10.081,160.211 10.120 M174.375 11.286 C 174.627 11.324,175.040 11.324,175.292 11.286 C 175.544 11.248,175.338 11.217,174.833 11.217 C 174.329 11.217,174.123 11.248,174.375 11.286 M150.460 11.451 C 150.668 11.491,150.968 11.490,151.127 11.448 C 151.286 11.406,151.117 11.374,150.750 11.375 C 150.383 11.377,150.253 11.411,150.460 11.451 M115.552 14.417 C 115.553 14.967,115.584 15.172,115.621 14.872 C 115.658 14.572,115.657 14.122,115.619 13.872 C 115.581 13.622,115.551 13.867,115.552 14.417 M115.545 20.167 C 115.545 20.579,115.578 20.748,115.618 20.542 C 115.657 20.335,115.657 19.998,115.618 19.792 C 115.578 19.585,115.545 19.754,115.545 20.167 M252.553 37.333 C 252.553 37.929,252.584 38.173,252.621 37.875 C 252.658 37.577,252.658 37.090,252.621 36.792 C 252.584 36.494,252.553 36.737,252.553 37.333 M252.553 48.167 C 252.553 48.762,252.584 49.006,252.621 48.708 C 252.658 48.410,252.658 47.923,252.621 47.625 C 252.584 47.327,252.553 47.571,252.553 48.167 M252.372 60.833 C 252.372 61.154,252.406 61.285,252.448 61.125 C 252.490 60.965,252.490 60.702,252.448 60.542 C 252.406 60.381,252.372 60.512,252.372 60.833 M146.872 67.000 C 146.872 67.321,146.906 67.452,146.948 67.292 C 146.990 67.131,146.990 66.869,146.948 66.708 C 146.906 66.548,146.872 66.679,146.872 67.000 M146.879 81.833 C 146.879 82.246,146.911 82.415,146.951 82.208 C 146.991 82.002,146.991 81.665,146.951 81.458 C 146.911 81.252,146.879 81.421,146.879 81.833 M148.205 87.000 C 148.205 87.321,148.240 87.452,148.282 87.292 C 148.323 87.131,148.323 86.869,148.282 86.708 C 148.240 86.548,148.205 86.679,148.205 87.000 M381.295 113.621 C 381.594 113.658,382.044 113.657,382.295 113.619 C 382.545 113.581,382.300 113.551,381.750 113.552 C 381.200 113.553,380.995 113.584,381.295 113.621 M216.958 113.951 C 217.165 113.991,217.502 113.991,217.708 113.951 C 217.915 113.911,217.746 113.879,217.333 113.879 C 216.921 113.879,216.752 113.911,216.958 113.951 M227.794 113.951 C 228.001 113.991,228.301 113.990,228.460 113.948 C 228.620 113.906,228.450 113.874,228.083 113.875 C 227.717 113.877,227.586 113.911,227.794 113.951 M75.877 114.953 C 76.131 114.991,76.506 114.990,76.711 114.951 C 76.916 114.911,76.708 114.880,76.250 114.881 C 75.792 114.882,75.624 114.915,75.877 114.953 M90.377 114.953 C 90.631 114.991,91.006 114.990,91.211 114.951 C 91.416 114.911,91.208 114.880,90.750 114.881 C 90.292 114.882,90.124 114.915,90.377 114.953 M218.875 115.282 C 219.035 115.323,219.298 115.323,219.458 115.282 C 219.619 115.240,219.487 115.205,219.167 115.205 C 218.846 115.205,218.715 115.240,218.875 115.282 M225.708 115.282 C 225.869 115.323,226.131 115.323,226.292 115.282 C 226.452 115.240,226.321 115.205,226.000 115.205 C 225.679 115.205,225.548 115.240,225.708 115.282 M179.580 141.917 C 179.580 150.808,179.600 154.421,179.625 149.946 C 179.650 145.470,179.650 138.195,179.625 133.779 C 179.600 129.363,179.580 133.025,179.580 141.917 M244.413 164.917 C 244.413 172.158,244.433 175.097,244.458 171.446 C 244.483 167.795,244.483 161.870,244.458 158.279 C 244.433 154.688,244.413 157.675,244.413 164.917 M54.879 177.333 C 54.879 177.746,54.911 177.915,54.951 177.708 C 54.991 177.502,54.991 177.165,54.951 176.958 C 54.911 176.752,54.879 176.921,54.879 177.333 " stroke="none" fill="#848484" fill-rule="evenodd"></path><path id="path4" d="M50.368 9.123 C 50.982 9.155,52.032 9.156,52.701 9.124 C 53.370 9.092,52.867 9.066,51.583 9.066 C 50.300 9.065,49.753 9.091,50.368 9.123 M22.542 9.448 C 22.702 9.490,22.965 9.490,23.125 9.448 C 23.285 9.406,23.154 9.372,22.833 9.372 C 22.512 9.372,22.381 9.406,22.542 9.448 M218.627 9.451 C 218.834 9.491,219.134 9.490,219.294 9.448 C 219.453 9.406,219.283 9.374,218.917 9.375 C 218.550 9.377,218.420 9.411,218.627 9.451 M207.875 9.615 C 208.035 9.657,208.298 9.657,208.458 9.615 C 208.619 9.573,208.487 9.539,208.167 9.539 C 207.846 9.539,207.715 9.573,207.875 9.615 M195.708 9.782 C 195.869 9.823,196.131 9.823,196.292 9.782 C 196.452 9.740,196.321 9.705,196.000 9.705 C 195.679 9.705,195.548 9.740,195.708 9.782 M181.794 9.951 C 182.001 9.991,182.301 9.990,182.460 9.948 C 182.620 9.906,182.450 9.874,182.083 9.875 C 181.717 9.877,181.586 9.911,181.794 9.951 M157.295 10.121 C 157.594 10.158,158.044 10.157,158.295 10.119 C 158.545 10.081,158.300 10.051,157.750 10.052 C 157.200 10.053,156.995 10.084,157.295 10.121 M162.208 10.119 C 162.460 10.158,162.873 10.158,163.125 10.119 C 163.377 10.081,163.171 10.050,162.667 10.050 C 162.162 10.050,161.956 10.081,162.208 10.119 M172.458 11.284 C 172.665 11.324,173.002 11.324,173.208 11.284 C 173.415 11.245,173.246 11.212,172.833 11.212 C 172.421 11.212,172.252 11.245,172.458 11.284 M115.550 16.833 C 115.550 17.337,115.581 17.544,115.619 17.292 C 115.658 17.040,115.658 16.627,115.619 16.375 C 115.581 16.123,115.550 16.329,115.550 16.833 M115.552 22.417 C 115.553 22.967,115.584 23.172,115.621 22.872 C 115.658 22.572,115.657 22.122,115.619 21.872 C 115.581 21.622,115.551 21.867,115.552 22.417 M252.548 34.917 C 252.549 35.375,252.581 35.543,252.620 35.289 C 252.658 35.036,252.657 34.661,252.617 34.456 C 252.578 34.251,252.546 34.458,252.548 34.917 M115.712 42.500 C 115.712 42.913,115.745 43.081,115.784 42.875 C 115.824 42.669,115.824 42.331,115.784 42.125 C 115.745 41.919,115.712 42.087,115.712 42.500 M252.545 50.500 C 252.545 50.913,252.578 51.081,252.618 50.875 C 252.657 50.669,252.657 50.331,252.618 50.125 C 252.578 49.919,252.545 50.087,252.545 50.500 M115.875 56.583 C 115.877 56.950,115.911 57.080,115.951 56.873 C 115.991 56.666,115.990 56.366,115.948 56.206 C 115.906 56.047,115.874 56.217,115.875 56.583 M148.209 61.750 C 148.211 62.117,148.245 62.247,148.285 62.040 C 148.324 61.832,148.323 61.532,148.281 61.373 C 148.239 61.214,148.207 61.383,148.209 61.750 M146.872 68.333 C 146.872 68.654,146.906 68.785,146.948 68.625 C 146.990 68.465,146.990 68.202,146.948 68.042 C 146.906 67.881,146.872 68.012,146.872 68.333 M116.042 68.750 C 116.044 69.117,116.078 69.247,116.118 69.040 C 116.158 68.832,116.156 68.532,116.115 68.373 C 116.073 68.214,116.040 68.383,116.042 68.750 M283.881 71.750 C 283.882 72.208,283.915 72.376,283.953 72.123 C 283.991 71.869,283.990 71.494,283.951 71.289 C 283.911 71.084,283.880 71.292,283.881 71.750 M116.205 79.667 C 116.205 79.987,116.240 80.119,116.282 79.958 C 116.323 79.798,116.323 79.535,116.282 79.375 C 116.240 79.215,116.205 79.346,116.205 79.667 M146.879 80.000 C 146.879 80.412,146.911 80.581,146.951 80.375 C 146.991 80.169,146.991 79.831,146.951 79.625 C 146.911 79.419,146.879 79.587,146.879 80.000 M148.217 88.833 C 148.217 89.337,148.248 89.544,148.286 89.292 C 148.324 89.040,148.324 88.627,148.286 88.375 C 148.248 88.123,148.217 88.329,148.217 88.833 M283.881 91.750 C 283.882 92.208,283.915 92.376,283.953 92.123 C 283.991 91.869,283.990 91.494,283.951 91.289 C 283.911 91.084,283.880 91.292,283.881 91.750 M148.375 100.417 C 148.377 100.783,148.411 100.914,148.451 100.706 C 148.491 100.499,148.490 100.199,148.448 100.040 C 148.406 99.880,148.374 100.050,148.375 100.417 M374.292 113.621 C 374.590 113.658,375.077 113.658,375.375 113.621 C 375.673 113.584,375.429 113.553,374.833 113.553 C 374.238 113.553,373.994 113.584,374.292 113.621 M378.795 113.621 C 379.094 113.658,379.544 113.657,379.795 113.619 C 380.045 113.581,379.800 113.551,379.250 113.552 C 378.700 113.553,378.495 113.584,378.795 113.621 M354.958 113.784 C 355.165 113.824,355.502 113.824,355.708 113.784 C 355.915 113.745,355.746 113.712,355.333 113.712 C 354.921 113.712,354.752 113.745,354.958 113.784 M215.294 113.951 C 215.501 113.991,215.801 113.990,215.960 113.948 C 216.120 113.906,215.950 113.874,215.583 113.875 C 215.217 113.877,215.086 113.911,215.294 113.951 M229.208 113.948 C 229.369 113.990,229.631 113.990,229.792 113.948 C 229.952 113.906,229.821 113.872,229.500 113.872 C 229.179 113.872,229.048 113.906,229.208 113.948 M341.125 113.951 C 341.331 113.991,341.669 113.991,341.875 113.951 C 342.081 113.911,341.912 113.879,341.500 113.879 C 341.087 113.879,340.919 113.911,341.125 113.951 M328.960 114.118 C 329.168 114.158,329.468 114.156,329.627 114.115 C 329.786 114.073,329.617 114.040,329.250 114.042 C 328.883 114.044,328.753 114.078,328.960 114.118 M77.375 114.953 C 77.627 114.991,78.040 114.991,78.292 114.953 C 78.544 114.915,78.337 114.883,77.833 114.883 C 77.329 114.883,77.123 114.915,77.375 114.953 M88.708 114.953 C 88.960 114.991,89.373 114.991,89.625 114.953 C 89.877 114.915,89.671 114.883,89.167 114.883 C 88.662 114.883,88.456 114.915,88.708 114.953 M221.549 115.291 C 222.264 115.322,223.389 115.322,224.049 115.290 C 224.710 115.259,224.125 115.233,222.750 115.233 C 221.375 115.234,220.835 115.259,221.549 115.291 M178.248 151.917 C 178.248 166.308,178.268 172.171,178.292 164.945 C 178.316 157.719,178.316 145.944,178.292 138.779 C 178.268 131.613,178.248 137.525,178.248 151.917 M230.833 154.219 C 230.833 154.248,231.077 154.491,231.375 154.760 L 231.917 155.250 231.427 154.708 C 230.971 154.203,230.833 154.090,230.833 154.219 M197.578 168.583 C 197.578 173.808,197.599 175.922,197.625 173.280 C 197.651 170.638,197.651 166.363,197.625 163.780 C 197.599 161.197,197.578 163.358,197.578 168.583 M302.458 190.618 C 302.665 190.657,303.002 190.657,303.208 190.618 C 303.415 190.578,303.246 190.545,302.833 190.545 C 302.421 190.545,302.252 190.578,302.458 190.618 " stroke="none" fill="#575757" fill-rule="evenodd"></path></g></svg>